<svg fill="none" xmlns="http://www.w3.org/2000/svg" viewBox="0 0 220 100"><path fill-rule="evenodd" clip-rule="evenodd" d="M45.071 1.06a.428.428 0 0 1 .192.005l2.818.82 19.827 5.768a.433.433 0 0 1 .31.407v41.696h6.863c.543 0 1.506-.194 2.027.016.567.228 1.067 1.263 1.414 1.718l2.439 3.201c.321.422.835.888.939 1.416.136.696 0 1.552 0 2.256v9.276h10.428a.43.43 0 0 1 .423.422v10.167h13.989l.181-.01c.109-.29.493-.702.626-.91l1.216-1.895 7.26-11.325 2.9-4.522c.325-.508.674-1.428 1.296-1.574.568-.133 1.337 0 1.917 0h7.746c-.011-2.276-.091-4.573.316-6.82a19.096 19.096 0 0 1 3.887-8.424 19.168 19.168 0 0 1 7.405-5.607c4.276-1.81 8.815-1.502 13.348-1.502a.43.43 0 0 1 .423.421v23.815h9.72a.428.428 0 0 1 .423.421v12.09h9.956a.43.43 0 0 1 .423.42v8.088h13.308V56.06l.001-.015a.371.371 0 0 1 .208-.349l3.827-2.082L220 38.996v60.645h-7.252a.43.43 0 0 1-.407-.534c.374-1.737-2.446-2.633-3.625-1.711a.431.431 0 0 1-.707-.186c-.99-2.483-4.111-.75-5.534.192a.43.43 0 0 1-.621-.252c-.751-2.087-3.723-2.742-5.31-1.214a.423.423 0 0 1-.531.051.424.424 0 0 1-.132-.137c-1.067-2.158-4.258-2.525-5.799-.68a.428.428 0 0 1-.664-.085c-1.29-2.031-4.392-2.233-5.979-.455a.419.419 0 0 1-.405.107.424.424 0 0 1-.301-.293c-.393-1.79-2.187-2.78-3.938-2.775-2.079.007-3.946 1.263-5.579 2.41-.335.234-.672-.155-.621-.477.719-4.49-4.575-7.41-8.022-4.465-.213.182-.655.156-.706-.186-.419-2.782-3.116-4.681-5.867-4.657-3.051.026-5.663 2.098-7.336 4.491a.425.425 0 0 1-.365.204.43.43 0 0 1-.365-.204 6.268 6.268 0 0 0-2.69-2.35 6.285 6.285 0 0 0-3.539-.5c-2.717.423-4.41 2.798-5.866 4.895a.433.433 0 0 1-.664.085c-3.069-2.78-7.8-.957-8.376 3.07-.047.334-.5.38-.706.187-1.58-1.48-4.307-1.073-5.4.786a.426.426 0 0 1-.578.151c-1.428-1.033-3.608-.398-4.154 1.313a.416.416 0 0 1-.249.277.425.425 0 0 1-.371-.025c-1.602-1.178-3.751.915-3.814 2.545a.428.428 0 0 1-.423.422H83.581a.429.429 0 0 1-.365-.635c.445-1.01-.356-2.406-1.211-2.97a2.192 2.192 0 0 0-3.038.726c-.248.394-.927.141-.773-.324.79-2.377-2.166-3.877-3.684-1.928-.286.368-.773-.047-.706-.41.264-1.434-.826-2.716-2.203-2.98-1.297-.25-2.56.375-3.483 1.243a.427.427 0 0 1-.706-.41c.445-1.796-.456-3.816-2.224-4.511-1.773-.697-3.8.173-4.711 1.784a.428.428 0 0 1-.773-.1c-.55-2.343-2.43-4.274-4.849-4.667a6.024 6.024 0 0 0-3.456.485c-1.092.503-1.75 1.27-2.533 2.142-.414.461-.977.943-1.635.631-.31-.147-.468-.43-.665-.692a4.036 4.036 0 0 0-1.47-1.315c-2.572-1.227-4.705 1.661-5.904 3.505a.43.43 0 0 1-.664.086c-2.69-2.524-6.919-.998-7.51 2.59a.424.424 0 0 1-.52.293c-2.906-.868-4.566 2.126-5.206 4.445a.428.428 0 0 1-.706.186c-1.818-1.448-3.976.174-3.658 2.292a.427.427 0 0 1-.408.534H.103A.405.405 0 0 1 0 99.69V53.443h6.748c1.998 0 3.998-.027 5.996 0 1.83.013 3.62.543 5.16 1.53a9.656 9.656 0 0 1 3.54 4.045c1.05 2.309.863 4.786.863 7.25v6.117h11.521a.43.43 0 0 1 .423.422v6.833h10.432c-.006-.26.045-.576.045-.766V1.47a.426.426 0 0 1 .343-.412Zm79.288 82.174h3.119v-3.11h-3.119v3.11Zm7.708 0h3.119v-3.11h-3.119v3.11Zm7.708 0h3.119v-3.11h-3.119v3.11Zm7.707 0h3.119v-3.11h-3.119v3.11Zm7.708 0h3.119v-3.11h-3.119v3.11Zm-48.018-5.006c-.03-.058-.068-.049-.106-.013.057 0 .1.003.106.013Zm40.31-2.445h3.119V72.67h-3.119v3.112Zm7.708 0h3.119V72.67h-3.119v3.112Zm-30.831 0h3.119l.001-3.112h-3.12v3.111Zm7.708 0h3.119V72.67h-3.119v3.111Zm7.708 0h3.119V72.67h-3.119v3.111Zm-88.894-1.219.093.002h11.682v-.676l-.093-.002H50.88v.676Zm0-4.714.093.001h11.682v-.676l-.093-.002H50.88v.677Zm88.894-1.52h3.119v-3.11h-3.119v3.11Zm7.707 0h3.119v-3.11h-3.119v3.11Zm7.708 0h3.119v-3.11h-3.119v3.11Zm-30.831 0h3.119l.001-3.11h-3.12v3.11Zm7.708 0h3.119v-3.11h-3.119v3.11Zm-81.186-3.195.093.002h11.682v-.677l-.093-.001H50.88v.676Zm0-4.714.093.001h11.682v-.676l-.093-.002H50.88v.677Zm0-4.715.093.002h11.682v-.677l-.093-.001H50.88v.676Zm0-4.714h11.775v-.675l-.093-.002H50.88v.677Zm0-4.715.093.001h11.682v-.676l-.093-.001H50.88v.676Zm0-4.714.093.001h11.682v-.676l-.093-.002H50.88v.677Zm0-4.715.093.001h11.682v-.676l-.093-.002H50.88v.677Zm0-4.715.093.002h11.682v-.676l-.093-.002H50.88v.676Zm0-4.714.093.001h11.682v-.676l-.093-.002H50.88v.677Zm0-4.715.093.002h11.682v-.677l-.093-.001H50.88v.676Zm0-4.714.093.001h11.682v-.677l-.093-.001H50.88v.677Zm0-4.715.093.001h11.682V12.6l-.093-.001H50.88v.676Z" fill="currentColor"/><path d="M124.809 21.78c.482-.25.909.478.426.728a22.2 22.2 0 0 0-3.556 2.282 23.064 23.064 0 0 0-8.108 12.523.426.426 0 0 1-.706.186 4.598 4.598 0 0 0-2.215-1.509 5.89 5.89 0 0 0-4.797.607c-1.526.908-2.654 2.357-3.414 3.939a.432.432 0 0 1-.311.202.43.43 0 0 1-.353-.117 5.706 5.706 0 0 0-2.164-1.147c-2.826-.803-6.237.327-7.684 2.957a.428.428 0 0 1-.772-.1 10.386 10.386 0 0 0-1.93-4.196 10.26 10.26 0 0 0-7.006-4.005 10.644 10.644 0 0 0-8.063 2.522c-.406.359-1.006-.236-.598-.596a11.268 11.268 0 0 1 4.64-2.454 11.13 11.13 0 0 1 8.836 1.375 11.5 11.5 0 0 1 4.7 6.216c.382-.49.828-.927 1.327-1.299 2.523-1.892 6.292-2.063 8.868-.216.438-.83.984-1.6 1.624-2.288 1.313-1.401 3.073-2.39 5.016-2.5a6.048 6.048 0 0 1 4.381 1.468 23.356 23.356 0 0 1 1.274-3.455 23.944 23.944 0 0 1 4.371-6.437 23.395 23.395 0 0 1 6.214-4.686ZM4.133 20.124c1.948-.805 4.232-.556 6.222-.041a16.788 16.788 0 0 1 4.984 2.223 18.37 18.37 0 0 1 6.925 8.415c.576 1.42.949 2.916 1.106 4.44a5.435 5.435 0 0 1 1.237-.733 5.372 5.372 0 0 1 4.064-.101 5.602 5.602 0 0 1 2.657 2.16 9.073 9.073 0 0 1 3.647-2.168c.522-.161.743.653.225.814a8.202 8.202 0 0 0-3.66 2.353.427.427 0 0 1-.665-.085 4.659 4.659 0 0 0-1.213-1.534 4.546 4.546 0 0 0-3.21-1.042 4.699 4.699 0 0 0-3.135 1.543c-.257.286-.706.044-.721-.298a14.88 14.88 0 0 0-.043-.647 15.76 15.76 0 0 0-1.316-4.97 17.553 17.553 0 0 0-6.809-7.725 15.68 15.68 0 0 0-4.831-1.96c-1.894-.417-4.057-.556-5.794.453a.424.424 0 0 1-.613-.472.422.422 0 0 1 .186-.256c.244-.14.497-.264.757-.37ZM149.576 7.066a17.033 17.033 0 0 1 9.847 2.273 19.547 19.547 0 0 1 7.143 7.297 18.167 18.167 0 0 1 2.384 9 7.053 7.053 0 0 1 2.092-.971c3.469-.96 7.56.522 9.324 3.673a12.213 12.213 0 0 1 2.121-2.48c1.727-1.522 3.968-2.51 6.305-2.31 1.832.157 3.616.967 4.776 2.385a15.97 15.97 0 0 1 1.007-2.51 16.537 16.537 0 0 1 9.224-8.125c.516-.18.735.635.225.813a14.89 14.89 0 0 0-3.051 1.477 15.655 15.655 0 0 0-6.828 9.44.434.434 0 0 1-.354.299.43.43 0 0 1-.419-.199 5.326 5.326 0 0 0-2.358-2.137 6.797 6.797 0 0 0-5.752.034c-1.965.912-3.499 2.541-4.572 4.395a.434.434 0 0 1-.419.196.426.426 0 0 1-.354-.297 6.085 6.085 0 0 0-1.687-2.294c-2.552-2.2-6.855-2.538-9.432-.205-.254.23-.746.087-.721-.299.234-3.72-.861-7.41-2.886-10.525a18.473 18.473 0 0 0-7.244-6.492 16.18 16.18 0 0 0-9.416-1.482c-6.361.902-12.282 5.272-14.497 11.365-.185.507-1.001.287-.815-.224.145-.4.305-.796.478-1.185 1.369-3.073 3.687-5.676 6.457-7.568a19.454 19.454 0 0 1 9.422-3.344Zm67.943-1.437a.427.427 0 0 1 .422.421.436.436 0 0 1-.422.422 9.245 9.245 0 0 0-3.345 1.15 12.038 12.038 0 0 0-4.507 4.674c-1.175 2.114-1.805 4.488-2.129 6.871a.424.424 0 0 1-.52.294.438.438 0 0 1-.295-.518c.182-1.404.496-2.788.935-4.134.771-2.31 1.989-4.496 3.768-6.183a10.937 10.937 0 0 1 6.093-2.997Z" fill="#000"/></svg>