<svg fill="none" xmlns="http://www.w3.org/2000/svg" viewBox="0 0 440 200"><path fill-rule="evenodd" clip-rule="evenodd" d="M316.658 158.602a.856.856 0 0 1 .844.842v7.689c.771.121 1.53.309 2.269.561 4.023 1.381 7.372 4.454 8.489 8.534 3.568-2.428 8.436-2.793 12.236-.591a11.63 11.63 0 0 1 5.622 10.111c3.47-2.336 7.465-4.47 11.723-4.007 3.309.361 6.655 2.252 7.929 5.371 3.733-3.054 9.874-2.418 12.925 1.32 3.62-3.42 10.324-2.611 13.043 1.553 3.838-2.829 9.95-1.355 12.142 2.857 2.18-1.42 4.621-2.792 7.281-2.608.99.033 1.958.303 2.822.787a6.198 6.198 0 0 1 2.148 1.993c3.507-1.731 9.312.497 9.25 4.599H440v1.686h-.541c-5.708.083-11.423 0-17.132 0H166.876a.813.813 0 0 1-.156 0H0v-1.686h.459c5.708-.083 11.423 0 17.132 0h22.392c-.087-2.213.798-4.526 2.665-5.797 1.926-1.312 4.5-1.218 6.483-.113.799-2.606 2.003-5.195 4.082-7 1.948-1.691 4.618-2.671 7.17-2.166a10.434 10.434 0 0 1 6.816-7.63 10.448 10.448 0 0 1 10.065 1.854c2.07-3.12 4.773-6.494 8.527-7.359a7.467 7.467 0 0 1 5.356.784 8.954 8.954 0 0 1 2.237 1.813c.324.364.622.749.895 1.152.197.29.438.842.85.832.36-.008.749-.507.956-.745.311-.356.575-.752.872-1.12a12.425 12.425 0 0 1 1.969-1.941 14.223 14.223 0 0 1 4.967-2.543 13.237 13.237 0 0 1 10.666 1.509 14.055 14.055 0 0 1 5.653 6.964 9.182 9.182 0 0 1 3.143-2.411c3.255-1.51 7.082-1.2 9.825 1.198a9.608 9.608 0 0 1 3.219 7.279c2.341-1.544 5.313-2.277 7.979-1.246a7.246 7.246 0 0 1 4.559 5.541 5.724 5.724 0 0 1 8.988 4.267 5.936 5.936 0 0 1 6.461-.129c2.109 1.409 3.946 4.37 3.488 7.006h56.984c.642-3.961 5.396-7.974 9.225-6.195 1.674-3.405 6.367-4.991 9.7-3.079 2.613-3.613 8.105-4.521 11.793-2.09a11.503 11.503 0 0 1 7.527-8.25 11.5 11.5 0 0 1 10.987 2.021c3.231-4.595 7.037-9.219 12.994-9.858a14.25 14.25 0 0 1 12.781 5.541 24.816 24.816 0 0 1 5.561-5.432 19.22 19.22 0 0 1 3.825-2.079h-.501a.857.857 0 0 1-.843-.843v-7.904a.855.855 0 0 1 .843-.842h7.908Zm-7.064 7.903h6.221v-6.218h-6.221v6.218Z" fill="#000"/><path fill-rule="evenodd" clip-rule="evenodd" d="M255.15 158.602a.851.851 0 0 1 .843.842v7.904a.776.776 0 0 1-.228.574l-.016.016c-.009.009-.018.019-.028.027a.787.787 0 0 1-.571.226h-7.909a.865.865 0 0 1-.593-.251.861.861 0 0 1-.25-.592v-7.904a.855.855 0 0 1 .843-.842h7.909Zm-7.065 7.903h6.223v-6.219h-6.223v6.219Zm22.444-7.903a.851.851 0 0 1 .843.842v7.904a.776.776 0 0 1-.228.574l-.016.016c-.01.009-.018.019-.028.027a.791.791 0 0 1-.571.226h-7.909a.865.865 0 0 1-.593-.251.861.861 0 0 1-.25-.592v-7.904a.855.855 0 0 1 .843-.842h7.909Zm-7.065 7.903h6.222v-6.219h-6.222v6.219Zm22.444-7.903a.851.851 0 0 1 .843.842v7.904a.764.764 0 0 1-.055.31.764.764 0 0 1-.174.264l-.015.016-.028.027a.791.791 0 0 1-.571.226h-7.909a.857.857 0 0 1-.843-.843v-7.904a.855.855 0 0 1 .843-.842h7.909Zm-7.065 7.903h6.221v-6.219h-6.221v6.219Zm22.436-7.903a.851.851 0 0 1 .843.842v7.904a.776.776 0 0 1-.228.574l-.016.016c-.01.009-.018.019-.028.027a.787.787 0 0 1-.571.226h-7.909a.865.865 0 0 1-.593-.251.861.861 0 0 1-.25-.592v-7.904a.855.855 0 0 1 .843-.842h7.909Zm-7.065 7.903h6.223v-6.219h-6.223v6.219Z" fill="#000"/><path fill-rule="evenodd" clip-rule="evenodd" d="M89.898 2.251a.853.853 0 0 1 .383.01l5.621 1.64 39.558 11.53a.862.862 0 0 1 .619.812V99.59h13.692c1.083 0 3.004-.39 4.043.03 1.133.456 2.13 2.524 2.823 3.435l4.865 6.397c.641.843 1.667 1.776 1.873 2.832.271 1.39 0 3.1 0 4.509v18.541h20.806a.855.855 0 0 1 .842.843v20.321h27.91c.029 0 .188-.011.362-.018.217-.58.983-1.404 1.249-1.819l2.426-3.79 14.484-22.635 5.785-9.041c.65-1.014 1.345-2.853 2.586-3.144 1.134-.266 2.669 0 3.824 0h15.455c-.021-4.55-.183-9.141.63-13.634a38.214 38.214 0 0 1 22.529-28.044c8.531-3.617 17.587-3.003 26.631-3.003a.856.856 0 0 1 .843.843v47.601h19.394a.855.855 0 0 1 .843.842v24.164h19.864a.865.865 0 0 1 .593.251c.157.158.246.37.25.592v16.165h26.551V112.19a.842.842 0 0 1 .417-.728l7.636-4.162 54.5-29.701a.945.945 0 0 1 .215-.085V79.4l-19.114 10.417-29.637 16.152-10.12 5.515c-.5.273-1.165.79-1.779 1.078-.011-.092-.129-.209-.432-.353.022.169.022.339.001.508.148-.039.293-.09.432-.154.015.135-.209.217-.427.256.186 1.194-.006 2.582-.006 3.783v46.067a.855.855 0 0 1-.843.843h-28.237a.857.857 0 0 1-.844-.843v-16.164h-19.863a.857.857 0 0 1-.844-.843v-24.164h-19.393a.856.856 0 0 1-.843-.843V73.054c-3.465-.005-6.931-.005-10.396 0-11.925.02-23.245 5.476-30.185 15.287a36.253 36.253 0 0 0-6.551 17.894c-.29 3.53-.126 7.12-.126 10.658a.852.852 0 0 1-.843.842h-18.352c-.234 0-.922.106-1.359.081-.344.547-.72 1.074-1.126 1.578l-2.367 3.698-6.891 10.768-13.488 21.078c-.614.96-1.382 2.943-2.572 3.245-.795.202-1.906 0-2.719 0h-26.895a.855.855 0 0 1-.844-.843v-20.321h-20.806a.863.863 0 0 1-.593-.25.863.863 0 0 1-.25-.593v-20.402c.001-1.031.199-2.314.032-3.361.031.406-.429-.472-.654-.768l-1.939-2.551-4.613-6.066c-.251-.329-.823-.872-1.186-1.37-.2.202-.311-.072-.359-.347-1.677.402-4.071-.037-5.756-.037h-11.978a.855.855 0 0 1-.842-.843V16.876L90.986 4.224c-.02.443-.087.913-.087 1.224v154.714a.855.855 0 0 1-.842.843h-22.59a.858.858 0 0 1-.843-.843v-13.657H43.637a.857.857 0 0 1-.844-.843V131.37c0-5.056.211-9.93-2.57-14.453-3.474-5.652-9.459-8.274-15.915-8.274H0v-1.686h13.438c3.986 0 7.977-.054 11.963 0a19.305 19.305 0 0 1 17.358 11.144c2.095 4.615 1.72 9.566 1.72 14.493v12.225h22.988a.857.857 0 0 1 .844.843v13.657h20.811c-.011-.519.092-1.151.092-1.531V3.074a.852.852 0 0 1 .335-.666.854.854 0 0 1 .35-.157Zm123.897 154.247c-.061-.116-.136-.097-.211-.026.114 0 .201.007.211.026Zm165.016-43.75c-.51.092-.211.128.108.071l-.004-.044a.523.523 0 0 1 0-.056l-.104.029Zm-225.792-11.685c-.076-.372-.103-.062-.05.248.042-.01.086-.019.127-.03.065.132.144.256.232.373.096-.113.173-.242.228-.38-.145.009-.29.009-.434 0l-.027.006a.932.932 0 0 1-.076-.217Z" fill="#000"/><path fill-rule="evenodd" clip-rule="evenodd" d="M255.15 143.707a.855.855 0 0 1 .844.843l-.001 7.903a.771.771 0 0 1-.228.573l-.016.017c-.009.009-.018.019-.028.027a.772.772 0 0 1-.571.226h-7.909a.86.86 0 0 1-.843-.843v-7.903a.862.862 0 0 1 .25-.593.86.86 0 0 1 .593-.25h7.909Zm-7.065 7.903h6.223v-6.217h-6.223v6.217Zm22.444-7.903a.855.855 0 0 1 .843.843v7.903a.771.771 0 0 1-.228.573l-.016.017c-.01.009-.018.019-.028.027a.774.774 0 0 1-.571.226h-7.909a.858.858 0 0 1-.843-.843v-7.903a.862.862 0 0 1 .25-.593.86.86 0 0 1 .593-.25h7.909Zm-7.065 7.903h6.222v-6.217h-6.222v6.217Zm22.444-7.903a.855.855 0 0 1 .843.843v7.903a.771.771 0 0 1-.229.573l-.015.017-.028.027a.774.774 0 0 1-.571.226h-7.909a.855.855 0 0 1-.843-.843v-7.903a.857.857 0 0 1 .843-.843h7.909Zm-7.065 7.903h6.221v-6.217h-6.221v6.217Zm22.436-7.903a.855.855 0 0 1 .843.843v7.903a.771.771 0 0 1-.228.573l-.016.017c-.01.009-.018.019-.028.027a.772.772 0 0 1-.571.226h-7.909a.86.86 0 0 1-.843-.843v-7.903a.862.862 0 0 1 .25-.593.86.86 0 0 1 .593-.25h7.909Zm-7.065 7.903h6.223v-6.217h-6.223v6.217Zm22.444-7.903a.855.855 0 0 1 .843.843v7.903a.771.771 0 0 1-.229.573l-.015.017c-.01.009-.018.019-.028.027a.774.774 0 0 1-.571.226h-7.909a.855.855 0 0 1-.843-.843v-7.903a.857.857 0 0 1 .843-.843h7.909Zm-7.065 7.903h6.221v-6.218h-6.221v6.218Zm-208.905-5.472c1.016-.039 2.041 0 3.058 0h22.076a.856.856 0 0 1 .843.843v3.04a.776.776 0 0 1-.228.574l-.016.015-.028.028a.794.794 0 0 1-.263.172.79.79 0 0 1-.308.053h-.044c-1.016.039-2.041 0-3.058 0h-22.076a.851.851 0 0 1-.843-.842v-3.04a.853.853 0 0 1 .843-.843h.044Zm.799 3.038.186.002h23.306v-1.352l-.186-.003h-23.306v1.353Zm-.799-12.464c1.016-.039 2.041 0 3.058 0h22.076a.856.856 0 0 1 .843.843v3.04a.776.776 0 0 1-.228.574l-.016.017c-.01.009-.018.019-.028.027a.791.791 0 0 1-.571.225h-.044c-1.016.038-2.041 0-3.058 0h-22.076a.858.858 0 0 1-.843-.843v-3.04a.855.855 0 0 1 .843-.843h.044Zm.799 3.038.186.002h23.306V138.4a11.66 11.66 0 0 0-.186-.002h-23.306v1.352Zm153.663-10.937a.852.852 0 0 1 .844.842l-.001 7.904a.776.776 0 0 1-.228.574l-.016.016-.028.027a.787.787 0 0 1-.571.225h-7.909a.856.856 0 0 1-.843-.842v-7.904a.857.857 0 0 1 .843-.842h7.909Zm-7.065 7.903h6.223v-6.219h-6.223v6.219Zm22.444-7.903a.851.851 0 0 1 .843.842v7.904a.776.776 0 0 1-.228.574l-.016.016-.028.027a.791.791 0 0 1-.571.225h-7.909a.856.856 0 0 1-.843-.842v-7.904a.855.855 0 0 1 .843-.842h7.909Zm-7.065 7.903h6.222v-6.219h-6.222v6.219Zm22.444-7.903a.851.851 0 0 1 .843.842v7.904a.764.764 0 0 1-.055.31.764.764 0 0 1-.174.264c-.004.006-.01.01-.015.016l-.028.027a.791.791 0 0 1-.571.225h-7.909a.856.856 0 0 1-.843-.842v-7.904a.856.856 0 0 1 .843-.842h7.909Zm-7.065 7.903h6.221v-6.219h-6.221v6.219Zm22.436-7.903a.851.851 0 0 1 .843.842v7.904a.776.776 0 0 1-.228.574l-.016.016-.028.027a.787.787 0 0 1-.571.225h-7.909a.856.856 0 0 1-.843-.842v-7.904a.857.857 0 0 1 .843-.842h7.909Zm-7.065 7.903h6.223v-6.219h-6.223v6.219Zm22.444-7.903a.851.851 0 0 1 .843.842v7.904a.764.764 0 0 1-.055.31.764.764 0 0 1-.174.264c-.004.006-.01.01-.015.016l-.028.027a.791.791 0 0 1-.571.225h-7.909a.856.856 0 0 1-.843-.842v-7.904a.855.855 0 0 1 .843-.842h7.909Zm-7.065 7.903h6.221v-6.219h-6.221v6.219Zm-208.905-9.426c1.016-.039 2.041 0 3.058 0h22.076a.856.856 0 0 1 .843.843v3.04a.776.776 0 0 1-.228.574l-.016.017-.028.026a.794.794 0 0 1-.571.226h-.044c-1.016.039-2.041 0-3.058 0h-22.076a.858.858 0 0 1-.843-.843v-3.04a.855.855 0 0 1 .843-.843h.044Zm.799 3.037.186.003h23.306v-1.351a5.815 5.815 0 0 0-.186-.003h-23.306v1.351Zm-.799-12.463c1.016-.038 2.041 0 3.058 0h22.076a.857.857 0 0 1 .843.843v3.04a.771.771 0 0 1-.228.574l-.016.017-.028.026a.779.779 0 0 1-.571.226h-.044c-1.016.039-2.041 0-3.058 0h-22.076a.853.853 0 0 1-.843-.843v-3.04a.856.856 0 0 1 .843-.843h.044Zm.799 3.038c.062.002.125.002.186.002h23.306v-1.351l-.186-.003h-23.306v1.352Zm-.799-12.46c1.016-.038 2.041 0 3.058 0h22.076a.857.857 0 0 1 .843.843v3.04a.771.771 0 0 1-.228.575l-.016.016-.028.026a.764.764 0 0 1-.571.226h-.044c-1.016.039-2.041 0-3.058 0h-22.076a.855.855 0 0 1-.843-.843v-3.04a.856.856 0 0 1 .843-.843h.044Zm.799 3.038.186.003h23.306v-1.352l-.186-.003h-23.306v1.352Zm-.799-12.46c1.016-.038 2.041 0 3.058 0h22.076a.856.856 0 0 1 .843.843v3.04a.771.771 0 0 1-.228.575l-.016.016-.028.027a.776.776 0 0 1-.571.225h-.044c-1.016.039-2.041 0-3.058 0h-22.076a.853.853 0 0 1-.843-.843v-3.04a.855.855 0 0 1 .843-.842h.044Zm.799 3.039.186.002h23.306v-1.352l-.186-.003h-23.306v1.353Zm-.799-12.464c1.016-.039 2.041 0 3.058 0h22.076a.856.856 0 0 1 .843.843v3.04a.768.768 0 0 1-.228.574l-.016.015c-.01.01-.018.02-.028.028a.783.783 0 0 1-.571.225h-.044c-1.016.04-2.041 0-3.058 0h-22.076a.855.855 0 0 1-.843-.842v-3.04a.854.854 0 0 1 .843-.843h.044Zm.799 3.037.186.003h23.306v-1.352l-.186-.003h-23.306v1.352Z" fill="#000"/><path d="M248.979 43.669c.963-.498 1.815.956.852 1.455a44.292 44.292 0 0 0-7.097 4.562 46.102 46.102 0 0 0-16.174 25.032.853.853 0 0 1-.599.586.851.851 0 0 1-.811-.214 9.173 9.173 0 0 0-4.419-3.017 11.729 11.729 0 0 0-9.571 1.213c-3.044 1.814-5.295 4.711-6.81 7.872a.866.866 0 0 1-.621.406.853.853 0 0 1-.704-.235 11.39 11.39 0 0 0-4.319-2.293c-5.637-1.606-12.442.654-15.329 5.91a.852.852 0 0 1-1.541-.2 20.776 20.776 0 0 0-3.851-8.385 20.49 20.49 0 0 0-13.976-8.008 21.187 21.187 0 0 0-16.087 5.043c-.81.718-2.007-.471-1.193-1.192a22.453 22.453 0 0 1 9.255-4.905 22.17 22.17 0 0 1 17.631 2.749 22.982 22.982 0 0 1 9.375 12.426 13.892 13.892 0 0 1 2.649-2.597c5.034-3.782 12.553-4.123 17.693-.433a21.39 21.39 0 0 1 3.238-4.573c2.62-2.801 6.132-4.776 10.009-4.995a12.04 12.04 0 0 1 8.74 2.933 46.866 46.866 0 0 1 2.542-6.907 47.884 47.884 0 0 1 8.722-12.866 46.685 46.685 0 0 1 12.396-9.367Z" fill="#000"/><path fill-rule="evenodd" clip-rule="evenodd" d="M100.688 80.173c1.016-.039 2.041 0 3.058 0h22.076a.856.856 0 0 1 .843.843v3.04a.777.777 0 0 1-.228.574c-.005.006-.011.01-.016.017l-.028.026a.784.784 0 0 1-.571.225h-.044c-1.016.04-2.041 0-3.058 0h-22.076a.854.854 0 0 1-.843-.842v-3.04a.855.855 0 0 1 .843-.843h.044Zm.799 3.038.186.002h23.306v-1.352l-.186-.002h-23.306v1.352Zm-.799-12.464c1.016-.038 2.041 0 3.058 0h22.076a.856.856 0 0 1 .843.843v3.04a.776.776 0 0 1-.228.574l-.016.016c-.01.009-.018.019-.028.027a.787.787 0 0 1-.571.226h-.044c-1.016.038-2.041 0-3.058 0h-22.076a.855.855 0 0 1-.843-.843v-3.04a.855.855 0 0 1 .843-.843h.044Zm.799 3.037.186.003h23.306v-1.351l-.186-.003h-23.306v1.351Z" fill="#000"/><path d="M8.215 40.356c3.887-1.608 8.442-1.11 12.414-.081a33.464 33.464 0 0 1 9.943 4.443 36.705 36.705 0 0 1 13.817 16.82 32.563 32.563 0 0 1 2.207 8.877 10.838 10.838 0 0 1 2.467-1.467 10.702 10.702 0 0 1 8.108-.203 11.184 11.184 0 0 1 5.302 4.32c2.048-2 4.541-3.485 7.276-4.334 1.04-.323 1.481 1.305.448 1.626a16.364 16.364 0 0 0-7.303 4.704.854.854 0 0 1-.704.237.85.85 0 0 1-.62-.407 9.318 9.318 0 0 0-2.422-3.068 9.065 9.065 0 0 0-6.403-2.082 9.368 9.368 0 0 0-6.256 3.084c-.512.573-1.408.09-1.44-.595a29.887 29.887 0 0 0-.084-1.294A31.54 31.54 0 0 0 42.34 61a35.064 35.064 0 0 0-13.584-15.44 31.261 31.261 0 0 0-9.64-3.917c-3.778-.834-8.093-1.112-11.56.905a.844.844 0 0 1-.85-1.456c.486-.28.99-.525 1.509-.737Z" fill="#000"/><path fill-rule="evenodd" clip-rule="evenodd" d="M100.688 61.325c1.016-.038 2.041 0 3.058 0h22.076a.856.856 0 0 1 .843.843v3.04a.768.768 0 0 1-.228.574l-.016.017-.028.026a.787.787 0 0 1-.571.226h-.044c-1.016.038-2.041 0-3.058 0h-22.076a.854.854 0 0 1-.843-.843v-3.04a.854.854 0 0 1 .843-.843h.044Zm.799 3.038.186.002h23.306v-1.351l-.186-.003h-23.306v1.352Z" fill="#000"/><path d="M298.396 14.258a33.937 33.937 0 0 1 19.647 4.544 39.029 39.029 0 0 1 14.249 14.584 36.371 36.371 0 0 1 4.758 17.99 14.033 14.033 0 0 1 4.173-1.942c6.92-1.92 15.083 1.044 18.602 7.343a24.338 24.338 0 0 1 4.233-4.958c3.445-3.042 7.914-5.016 12.576-4.617 3.655.313 7.216 1.931 9.53 4.766a31.993 31.993 0 0 1 2.009-5.017 33.017 33.017 0 0 1 18.403-16.239c1.028-.36 1.466 1.269.449 1.625a29.805 29.805 0 0 0-6.087 2.951 31.296 31.296 0 0 0-13.624 18.868.85.85 0 0 1-1.181.523.86.86 0 0 1-.36-.322 10.626 10.626 0 0 0-4.705-4.271 13.532 13.532 0 0 0-11.474.066c-3.921 1.825-6.982 5.081-9.122 8.786a.858.858 0 0 1-1.541-.202 12.18 12.18 0 0 0-3.367-4.586c-5.093-4.396-13.676-5.072-18.818-.409-.506.46-1.488.175-1.439-.596.467-7.438-1.717-14.813-5.758-21.04a36.883 36.883 0 0 0-14.451-12.974 32.232 32.232 0 0 0-18.787-2.964c-12.692 1.802-24.504 10.539-28.923 22.718-.368 1.013-1.997.573-1.626-.448.29-.801.609-1.591.955-2.37 2.731-6.142 7.354-11.344 12.882-15.127a38.76 38.76 0 0 1 18.797-6.682Z" fill="#000"/><path fill-rule="evenodd" clip-rule="evenodd" d="M100.688 51.903c1.016-.038 2.041 0 3.058 0h22.076a.856.856 0 0 1 .843.843v3.04a.768.768 0 0 1-.228.574l-.016.017-.028.026a.786.786 0 0 1-.571.226h-.044c-1.016.039-2.041 0-3.058 0h-22.076a.855.855 0 0 1-.843-.843v-3.04a.854.854 0 0 1 .843-.843h.044Zm.799 3.038.186.002h23.306v-1.351l-.186-.003h-23.306v1.352Zm-.799-12.463c1.016-.039 2.041 0 3.058 0h22.076a.856.856 0 0 1 .843.842v3.04a.778.778 0 0 1-.228.574l-.016.017-.028.027a.786.786 0 0 1-.571.225h-.044c-1.016.039-2.041 0-3.058 0h-22.076a.854.854 0 0 1-.843-.843v-3.04a.854.854 0 0 1 .843-.842h.044Zm.799 3.038.186.002h23.306v-1.352l-.186-.003h-23.306v1.353Z" fill="#000"/><path d="M433.945 11.383a.85.85 0 0 1 .844.843.869.869 0 0 1-.844.841 18.439 18.439 0 0 0-6.673 2.3 24.049 24.049 0 0 0-8.992 9.342c-2.343 4.226-3.6 8.97-4.247 13.735a.85.85 0 0 1-1.037.588.873.873 0 0 1-.589-1.037 45.576 45.576 0 0 1 1.865-8.262c1.538-4.617 3.968-8.987 7.519-12.36a21.805 21.805 0 0 1 12.154-5.99Z" fill="#000"/><path fill-rule="evenodd" clip-rule="evenodd" d="M100.688 33.056c1.016-.04 2.041 0 3.058 0h22.076a.856.856 0 0 1 .843.843v3.04a.776.776 0 0 1-.228.574l-.016.016-.028.027a.787.787 0 0 1-.571.225h-.044c-1.016.039-2.041 0-3.058 0h-22.076a.855.855 0 0 1-.843-.842v-3.04a.854.854 0 0 1 .843-.843h.044Zm.799 3.037.186.003h23.306v-1.352l-.186-.003h-23.306v1.352Zm-.799-12.463c1.016-.039 2.041 0 3.058 0h22.076a.855.855 0 0 1 .843.843v3.04a.777.777 0 0 1-.228.574c-.005.006-.011.01-.016.017l-.028.026a.787.787 0 0 1-.571.226h-.044c-1.016.038-2.041 0-3.058 0h-22.076a.856.856 0 0 1-.843-.843v-3.04a.854.854 0 0 1 .843-.843h.044Zm.799 3.038.186.002h23.306v-1.352l-.186-.003h-23.306v1.353Z" fill="#000"/></svg>