<svg fill="none" xmlns="http://www.w3.org/2000/svg" viewBox="0 0 390 260"><path d="M349.855 225.631c1.373 1.802 3.071 3.376 5.205 4.074.8.261 1.642.36 2.423.684a3.04 3.04 0 0 1 1.826 2.093c.188 1.015.257 2.049.205 3.079a54.044 54.044 0 0 1-2.023 14.889c-.429 1.515-.45 7.259-5.33 5.666a4.427 4.427 0 0 1-1.274-.415l-.484-.158c-1.7-1.184-2.295-3.068-2.306-3.103-.374-.838-.69-1.714-1.108-2.524a15.677 15.677 0 0 0-3.309-4.214 50.065 50.065 0 0 0-5.287-4.161c0-.012.004-.024.004-.036.005-.67.148-1.332.418-1.946a8.356 8.356 0 0 1 1.139-1.664 2.3 2.3 0 0 0 .254-2.71c-.208-.353-.487-.66-.691-1.018a4.023 4.023 0 0 1-.426-1.161c-.066-.311-.017-.634-.057-.941l.36-.041c.846.036 1.693.028 2.537-.022a4.305 4.305 0 0 0 2.565-1.277c.583-.586 1.066-1.271 1.626-1.879a21.244 21.244 0 0 1 3.733-3.215Z" fill="#000"/><path fill-rule="evenodd" clip-rule="evenodd" d="M207.795 4.707c3.966-3.18 9.602-3.898 14.483-2.955a16.613 16.613 0 0 1 6.583 2.787c1.888 1.349 3.563 2.956 5.399 4.371a12.868 12.868 0 0 0 6.04 2.74c2.334.335 4.726.023 7.067-.047a17.585 17.585 0 0 1 6.659.874 16.257 16.257 0 0 1 5.079 3.05c3.033 2.657 5.128 6.245 6.619 9.944a36.188 36.188 0 0 1 2.57 11.287 28.197 28.197 0 0 1-2.739 14.136c-.101.21-1.103 1.98-1.107 1.988a21.24 21.24 0 0 1-6.749 6.837 20.447 20.447 0 0 1-12.888 2.949 19.078 19.078 0 0 1-6.5-1.853 18.533 18.533 0 0 1-5.566-4.398c-3.261-3.692-5.567-8.437-9.72-11.275a16.625 16.625 0 0 0-13.558-2.369c-5.642 1.483-10.241 5.32-14.969 8.53-4.403 2.989-9.37 5.737-14.852 5.696a16.367 16.367 0 0 1-4.257-.596l-.031.26c3.96.629 7.878 1.446 11.754 2.453a161.481 161.481 0 0 1 24.435 8.665c3.971 1.762 7.89 3.63 11.757 5.602a39.281 39.281 0 0 1 5.685 3.213c1.69 1.256 3.152 3.087 2.999 5.301a1.472 1.472 0 0 1-.062.328c1.421 1.135 2.82 2.298 4.343 3.3a32.584 32.584 0 0 0 6.351 3.27c2.124.804 4.333 1.266 6.504 1.912a13.885 13.885 0 0 1 4.469 2.085 2.88 2.88 0 0 1 1.587-.716c1.334-.14 2.396.86 3.125 1.848a9.756 9.756 0 0 1 1.91 3.724 3.886 3.886 0 0 1-.954 3.574c-.195.197-.415.37-.651.516a3.86 3.86 0 0 1-.048 3.627 3.743 3.743 0 0 1-1.503 1.404 67.22 67.22 0 0 1 1.766 1.311c-.06-.84.317-1.654.997-2.155a2.364 2.364 0 0 1 1.676-.359c-.657-.961-.941-2.22-.227-3.238.689-.982 1.851-1.2 2.966-1.048-.792-1.133-1.298-2.738-.188-3.838.701-.694 1.646-.624 2.524-.38.772.215 1.542.44 2.298.71.716.25 1.415.55 2.089.899a2.741 2.741 0 0 1 1.915-.708c3.03-.01 5.328 2.485 6.784 4.872a19.214 19.214 0 0 1 2.745 9.087c.213.15.435.288.664.414.507.263 1.098.062 1.646.063a6.104 6.104 0 0 1 1.656.244c1.116.374 2.186.873 3.188 1.489a55.328 55.328 0 0 0 27.427 6.979c5.504-.058 10.918-1.136 16.403-1.453a68.272 68.272 0 0 1 15.35.882 8.641 8.641 0 0 0-.452-2.642c-.432-1.222-1.158-2.319-1.691-3.497a7.732 7.732 0 0 1-.763-4.225c.113-.626.17-1.26.169-1.895a1.331 1.331 0 0 0-.545-1.112c-.736-.562-.249-1.62.461-1.885a2.899 2.899 0 0 0 1.219-1.092c.422-.608.756-1.272 1.144-1.901.206-.333.427-.656.663-.968-.306-.132-.61-.272-.907-.43a12.768 12.768 0 0 1-3.462-2.668c-1.089-1.197-2.129-2.665-2.191-4.338a3.71 3.71 0 0 1 2.716-3.612 4.237 4.237 0 0 1 2.465.033 5.35 5.35 0 0 1 .53-2.266 3.964 3.964 0 0 1 3.546-2.287 4.657 4.657 0 0 1 3.557 2.088 7.045 7.045 0 0 1 1.085 2.96 3.697 3.697 0 0 1 2.745.35 4.567 4.567 0 0 1 1.876 2.281c.172.42.299.859.375 1.306.044.247.08.498.108.747-.002.198.016.396.055.589a.256.256 0 0 0 .054.028c.125.05.177.076.347.131.382.125.758.263 1.125.425a8.762 8.762 0 0 1 2.046 1.29 8.044 8.044 0 0 1 2.609 4.028 7.767 7.767 0 0 1-.361 5.13c-.703 1.637-1.895 3.077-2.91 4.529l-1.617 2.313-.08.113-.005.032a33.944 33.944 0 0 0-.312 8.205c1.047.216 2.089.456 3.124.721.113-.008.225.001.335.024a71.663 71.663 0 0 1 14.781 4.849 45.939 45.939 0 0 1 9.422 5.53v2.856c-.337-.291-.68-.576-1.03-.852a47.69 47.69 0 0 0-10.945-6.22 69.42 69.42 0 0 0-12.34-3.896 1.09 1.09 0 0 1-.398-.029 69.276 69.276 0 0 0-11.793-2.014c-.163-.013-.327-.027-.491-.039a70.128 70.128 0 0 0-1.521-.097c-.266-.015-.532-.025-.797-.035a64.872 64.872 0 0 0-1.529-.053 1.128 1.128 0 0 1-.761-.302 66.047 66.047 0 0 0-3.252-.489 68.445 68.445 0 0 0-15.58-.031c-5.115.547-10.18 1.29-15.34 1.086a57.702 57.702 0 0 1-13.718-2.211 62.398 62.398 0 0 1-12.739-5.403 6.991 6.991 0 0 0-2.823-1.053c-.608-.037-1.205.11-1.815.034a3.077 3.077 0 0 1-.976-.307s-.443-.232-.589-.339a3.735 3.735 0 0 0-2.37-.722 4.562 4.562 0 0 0-1.653.435l-.012.005a4.465 4.465 0 0 0-.249.126l-.083.043c-.051.028-.1.058-.151.087-.068.041-.138.082-.206.126l-.004.002c-.39.253-.746.555-1.061.896a8.25 8.25 0 0 0-1.373 2.096l-.015.031a12.013 12.013 0 0 0-.442 1.106l-.053.149c-.12.352-.227.703-.324 1.048-.06.212-.116.427-.172.64-.09.357-.176.713-.257 1.065-.036.169-.067.338-.095.509l-.001.003a.656.656 0 0 0 .094.517c.144.148.468.199.658.284.251.111.486.256.694.434.167.148.312.319.43.507.01.02.429.947.476 1.15a7.387 7.387 0 0 0 1.358 2.87c.776.9 1.659 1.702 2.628 2.39a85.77 85.77 0 0 0 5.743 3.932 65.807 65.807 0 0 0 12.51 6.283 45.343 45.343 0 0 0 14.121 2.758c.192.006.384.004.576.007.01-.025.023-.049.033-.074l.205.078a74.75 74.75 0 0 0 6.842-.224c2.197-.166 4.407-.526 6.614-.614a25.695 25.695 0 0 1 5.688.018 1.163 1.163 0 0 1 1.138 1.106 1.128 1.128 0 0 1-1.109 1.132 26.11 26.11 0 0 0-3.212-.166c.613 2.033 1.353 4.035 1.654 6.144a11.25 11.25 0 0 1-.095 3.693c-.18.971-.244 1.791.535 2.508 1.371 1.264 3.609 1.541 5.357 1.913a84.78 84.78 0 0 0 1.579.317.87.87 0 0 1 .253.042 80.19 80.19 0 0 0 6.205.901c1.757.185 3.517.316 5.279.411.276.015.554.028.83.041.667.032 1.334.058 2.001.078.154.005.309.013.463.017l.229.005a175.107 175.107 0 0 0 3.075.047 201.762 201.762 0 0 0 3.03-.009c.647-.006 1.293-.015 1.94-.028l.581-.011c.777-.016 1.554-.036 2.331-.059l.217-.006c.923-.028 1.846-.059 2.769-.093l.002.001c.499-.017.999-.037 1.498-.056l.814-.031 1.233-.051a42.747 42.747 0 0 0 5.954-.559 29.749 29.749 0 0 0 5.288-1.553c.149-.176.339-.312.555-.395.395-.219.681-.594.786-1.032a3.247 3.247 0 0 0-.165-1.969c-.568-1.61-1.73-2.942-2.251-4.582a9.245 9.245 0 0 1-.039-4.514c.255-1.385.603-2.737.449-4.155a1.134 1.134 0 0 1 1.109-1.133 1.159 1.159 0 0 1 1.137 1.106c.174 1.595-.231 3.173-.518 4.731a9.505 9.505 0 0 0-.199 2.134c.052.789.277 1.557.66 2.249.883 1.709 2.092 3.332 2.158 5.331a4.217 4.217 0 0 1-1.197 3.131 73.841 73.841 0 0 0 5.964 7.689v3.34c-2.883-3.046-5.54-6.3-7.832-9.78-.189.073-.381.144-.572.214l.088.091c.386.388.763.785 1.129 1.19 2.986 3.304 5.285 7.039 7.187 10.989v57.534a184.963 184.963 0 0 1-5.83-5.444 164.862 164.862 0 0 1-6.822-7.07l-2.916-3.302a135.457 135.457 0 0 1-13.331-18.364 119.606 119.606 0 0 1-4.146-7.505 37.614 37.614 0 0 1-4.148 2.005c-7.29 2.995-15.198 3.664-22.992 4.518a123.413 123.413 0 0 0-13.217-7.501 1.153 1.153 0 0 0-1.525.439 1.132 1.132 0 0 0 .441 1.519 123.101 123.101 0 0 1 16.011 9.382 69.004 69.004 0 0 1 2.16 2.202l2.899 3.297a68.461 68.461 0 0 1 7.682 11.487c1.452 2.739 2.689 5.595 4.331 8.231a23.752 23.752 0 0 0-3.591 2.976c-.629.641-1.189 1.334-1.771 2.016-.414.6-1.081.98-1.81 1.032a27.822 27.822 0 0 0-2.77.041 2.147 2.147 0 0 0-1.871 2.188 6.002 6.002 0 0 0 .566 2.788c.179.395.401.77.659 1.118.105.124.201.256.284.394-.013.025-.022.079-.009.067a10.923 10.923 0 0 0-1.494 2.202 7.91 7.91 0 0 0-.47 1.462 86.258 86.258 0 0 1-1.82-1.322 177.454 177.454 0 0 1-9.514-7.71 228.462 228.462 0 0 1-17.537-17.117c-5.579-6.016-11.354-12.235-14.606-19.867a28.08 28.08 0 0 1-1.55-4.775l-.446-2.494a22.436 22.436 0 0 1 1.745-12.429 17.248 17.248 0 0 1 6.946-7.533c3.582-2.107 7.705-3.205 11.716-4.181a161.964 161.964 0 0 1 19.874-3.338 5.58 5.58 0 0 1-3.047-2.622 5.14 5.14 0 0 1-.191-3.227 9.28 9.28 0 0 0 .037-3.257c-.343-2.045-1.113-3.998-1.696-5.988-.115.005-.23.013-.345.019-.18.021-.361.041-.541.066a.77.77 0 0 1-.249-.008c-.614.055-1.229.123-1.845.187-5.334.556-10.707.862-16.048.208a49.656 49.656 0 0 1-14.124-4.09 76.873 76.873 0 0 1-12.657-7.28c-2.031-1.418-4.16-2.832-5.675-4.823a9.501 9.501 0 0 1-1.536-3.393c-.16-.584-.38-.597-.918-.833a2.383 2.383 0 0 1-1.294-1.294 2.905 2.905 0 0 1-.193-.901 19.369 19.369 0 0 1-7.626-7.155c-.47-.775-.897-1.577-1.394-2.335a9.44 9.44 0 0 0-1.012-1.252 2.231 2.231 0 0 1-.671 1.394c-1.082 1.095-2.826.922-4.191.618a16.086 16.086 0 0 1-2.901-.958c.196.527.229 1.101.095 1.647a1.851 1.851 0 0 1-1.429 1.319 3.643 3.643 0 0 1-1.911-.281 10.507 10.507 0 0 1-2.945-1.656c-2.946-2.297-4.743-5.726-7.747-7.971l-.07-.052-.071-.049a17.977 17.977 0 0 0-.283-.198 20.191 20.191 0 0 0-1.479-.906 24.573 24.573 0 0 0-2.321-1.126 29.686 29.686 0 0 0-2.2-.817 47.73 47.73 0 0 0-2.513-.754c-3.366-.917-6.803-1.543-10.182-2.403-.187.885-.441 1.782-1.267 2.282-1.097.664-2.378.177-3.394-.389a181.564 181.564 0 0 1-2.902-1.657c-1.87-1.088-3.727-2.2-5.586-3.305-4.021-2.39-8.085-4.734-12.309-6.715l.107.15c.048.071.094.145.143.216a35.623 35.623 0 0 1 2.708 4.73l.007.016c.141.294.276.59.409.888.022.051.047.103.07.154l.004.01.029.064c.128.291.249.586.369.879l.098.231c.124.308.241.617.357.926.032.084.067.168.098.252.111.302.216.606.32.91.032.092.066.184.097.277.1.297.193.597.286.897.031.098.064.195.094.294.091.3.175.603.26.905l.084.291c.082.302.157.606.233.908.025.099.052.198.076.296.074.306.143.613.211.92.021.097.045.193.066.289.066.311.127.623.188.934.018.094.039.187.057.281.059.318.114.638.168.957.014.087.031.174.046.261.055.336.104.673.152 1.01l.032.213c.048.349.093.7.135 1.049l.022.178c.042.368.082.737.118 1.107l.012.124c.038.401.072.803.103 1.206l.002.026c.564 7.545-.222 15.262-1.079 22.759.135.027.27.056.405.085.155.034.31.066.465.101 9.107 2.028 17.846 6.688 25.504 12.137a86.245 86.245 0 0 1 6.444 4.977c3.28 2.789 6.105 6.047 9.333 8.888a29.697 29.697 0 0 0 4.756 3.401c1.843 1.021 3.764 1.971 5.109 3.609.071.086.134.177.2.265.077.096.158.187.232.287.28.434.524.891.728 1.365l.036.079c.058.137.112.277.166.416l.046.121a24.077 24.077 0 0 1 1.093 5.357c.087.992.325 2.496.329 2.523.509 3.565 1.082 7.412.637 10.903l-.03.2a4.65 4.65 0 0 1-1.862 3.432 3.693 3.693 0 0 1-1.567.613c-.045.007-.087.018-.133.024-1.986.258-3.726-.922-5.206-2.263-.997-.873-1.905-1.85-2.859-2.771a53.05 53.05 0 0 0-5.393-4.4l-.011-.007c-.157-.113-.316-.222-.474-.332a66.658 66.658 0 0 0-2.43-1.622 74.775 74.775 0 0 0-1.176-.737l-.144-.089a104.218 104.218 0 0 0-7.004-3.892c-8.064-4.115-16.504-7.423-24.806-11.013l-.252-.11c-.374-.163-.747-.328-1.12-.492-.551-.24-1.102-.48-1.65-.724-5.314-2.359-10.802-4.811-15.36-8.46a6.76 6.76 0 0 1-.389-.34 26.033 26.033 0 0 1-1.874-1.718 3.093 3.093 0 0 0-.244-.141c-.38-.115-1.39-1.475-2.485-3.174a34.624 34.624 0 0 1-4.1-8.941c-.672-2.072-1.23-4.182-1.743-6.291l-.04-.167c-.04-.169-.083-.339-.124-.507-.109-.458-.214-.918-.318-1.377l-.023-.106c-.457-2.036-.86-4.082-1.211-6.137l-.022-.127c-.107-.634-.21-1.268-.307-1.903l-.029-.188c-.095-.628-.187-1.257-.272-1.886l-.025-.17-.073-.554a45.58 45.58 0 0 1-5.604 1.411c-6.951 1.351-14.065 1.635-21.108 2.348-.425.043-.851.088-1.275.135-.265.029-.53.057-.794.088-.749.087-1.497.182-2.244.283-.174.024-.349.046-.523.071l-.556.081a87.774 87.774 0 0 0-1.857.299 54.792 54.792 0 0 0-4.546.981l-.217.057c-.324.088-.647.179-.968.274-.166.048-.331.1-.496.151-.249.077-.497.153-.743.234-.437.146-.873.298-1.304.46a25.983 25.983 0 0 0-5.701 3.124c.048.024-2.214 1.63-2.214 1.63-1.099.843-2.189 1.709-3.303 2.552l-.178.131a34.475 34.475 0 0 1-3.551 2.388 37.03 37.03 0 0 1-9.008 3.481c-.684.181-1.372.348-2.06.51l-.653.153-.411.095c-3.593.825-7.21 1.556-10.697 2.724a61.54 61.54 0 0 0-8.286 3.741c-3.461 1.824-6.918 3.726-10.562 5.084l-.114.044a53.37 53.37 0 0 1-.426.154 24.247 24.247 0 0 1-11.153 1.557 16.154 16.154 0 0 1-6.016-1.856 20.508 20.508 0 0 1-4.949-4.061c-.017-.02-.037-.037-.055-.057-.205-.22-.42-.456-.638-.702-1.816-2.034-3.878-4.719-4.212-7.465a5.094 5.094 0 0 1 1.683-4.838 4.7 4.7 0 0 1 .695-.547 5.502 5.502 0 0 1 2.698-.87 9.697 9.697 0 0 1 1.851.017c.476.047.95.118 1.425.19l.667.092c4.384.595 7.648-1.22 11.103-3.69l1.037-.756a152.837 152.837 0 0 1 6.931-4.739c3.144-2.035 6.346-3.981 9.552-5.917a5360.4 5360.4 0 0 0 6.127-3.698c.292-.176.584-.354.876-.529a336.3 336.3 0 0 1 4.063-2.385l.859-.494c.355-.204.709-.411 1.065-.612a259.2 259.2 0 0 1 1.993-1.113l.144-.079c.496-.274.993-.546 1.491-.815.28-.153.564-.303.846-.453.286-.154.572-.307.86-.458l.313-.167c.187-.098.375-.194.563-.291.354-.186.711-.369 1.066-.551l.462-.236a148.123 148.123 0 0 1 6.133-2.948 155.018 155.018 0 0 1 8.885-3.676l.165-.061c.517-.195 1.035-.387 1.554-.576.396-.145.794-.286 1.192-.428l.51-.181c.531-.186 1.063-.371 1.596-.551l.084-.029c2.911-.989 5.85-1.888 8.818-2.698.148-.04.297-.076.445-.116.948-.256 1.898-.504 2.851-.742l.133-.033c.713-.18 1.427-.353 2.143-.521a151.21 151.21 0 0 1 4.588-.995c.155-.032.311-.06.467-.091.573-.114 1.146-.225 1.721-.332 1.126-.214 2.255-.417 3.386-.61a4.247 4.247 0 0 1-.758-2.005 3.297 3.297 0 0 1 .548-2.238 46.827 46.827 0 0 1-5.114-10.261c1.471.243 2.944.482 4.414.73a1.16 1.16 0 0 0 1.364-.811 1.135 1.135 0 0 0-.813-1.36c-4.136-.696-8.323-1.272-12.404-2.246-.067-.024-.135-.046-.202-.071a105.886 105.886 0 0 1-12.904-5.7 29.05 29.05 0 0 1-5.843-3.689 10.227 10.227 0 0 1-3.326-5.626 13.835 13.835 0 0 1-.015-5.1l.52-2.178c.188-.63.404-1.25.646-1.86a74.972 74.972 0 0 1-2.326-2.204 85.159 85.159 0 0 1-6.623-7.442c-1.854-2.323-3.695-4.696-5.994-6.606a17.337 17.337 0 0 0-3.762-2.34 21.158 21.158 0 0 1-4.14-2.28 3.89 3.89 0 0 1-1.51-2.096 2.629 2.629 0 0 1 .621-2.35c.24-.27.528-.495.849-.662-.043-.037-.09-.07-.132-.108a11.914 11.914 0 0 1-1.24-1.272c-.475-.567-.957-1.193-.766-1.984.361-1.499 2.294-1.389 3.497-1.331.137.006.273.023.41.033-.301-.34-.597-.682-.88-1.033a2.24 2.24 0 0 1-.505-2.24 1.935 1.935 0 0 1 1.572-1.193c1.437-.221 2.818.63 4.085 1.183l1.683.734-.158-.36c-.298-.677.412-1.428 1.065-1.429a8.605 8.605 0 0 1 6.465 2.903 16.99 16.99 0 0 1 1.932 3.14 15.22 15.22 0 0 0 1.949 2.82 53.462 53.462 0 0 0 5.239 4.884 115.295 115.295 0 0 1 8.309 8.018c.329-.282.659-.564.998-.835.514-.41 1.21-.062 1.544.369a34.288 34.288 0 0 0 6.235 6.089 48.968 48.968 0 0 0 14.22 7.293 67.657 67.657 0 0 0 15.107 3.163l-.015-.038c-.474-1.15-1.158-2.376-1.689-3.57a10.878 10.878 0 0 1-1.099-4.117c.013-.728.09-1.454.229-2.169.083-.544.183-1.195-.14-1.518a1.131 1.131 0 0 1 .186-1.764 4.04 4.04 0 0 0 1.493-1.7c.262-.462.52-.917.794-1.362a7.834 7.834 0 0 1-1.5-1.44c-1.892-2.38-2.037-5.647-2.133-8.549a1.135 1.135 0 0 1 1.398-1.098c1.932.338 3.822.882 5.638 1.622 1.423.614 2.921 1.56 3.668 2.953 1.555-.253 3.114.228 4.68.46a6.58 6.58 0 0 0 1.219.032c.166-.011.33-.045.487-.1.155-.041.306-.098.45-.169a5.605 5.605 0 0 0 1.907-1.673c.208-.274.401-.56.574-.858.185-.31.354-.631.515-.955.342-.691.638-1.405.952-2.11a16.91 16.91 0 0 1 .816-1.623c.243-.426 1.057-1.492 1.476-1.868.055-.05.107-.103.164-.15 1.609-1.334 3.547-1.58 5.573-1.65a18.156 18.156 0 0 0 7.325-1.605 13.833 13.833 0 0 0 5.291-4.632c2.532-3.628 4.217-7.93 7.755-10.767Zm-16.098 84.64a24.179 24.179 0 0 1-5.681 2.262 170.436 170.436 0 0 1-9.313 2.529 94.712 94.712 0 0 1-18.968 2.738c-1.559.048-3.131.07-4.69-.02a11.166 11.166 0 0 1-2.399-.361 161.528 161.528 0 0 0-10.413 1.94l-.407.091c-.532.119-1.063.241-1.593.365-.339.08-.677.163-1.015.246-.333.08-.667.16-1 .242a155.647 155.647 0 0 0-14.461 4.362 159.882 159.882 0 0 0-23.155 10.525 284.222 284.222 0 0 0-6.001 3.436c-.176.104-.351.21-.527.313a432.038 432.038 0 0 0-3.596 2.151c-.804.486-1.637 1.207-2.536 1.525l-.06.036c-.023.017-.044.035-.07.05A361.911 361.911 0 0 0 66.6 134.191c-1.09.796-2.206 1.581-3.363 2.269-.284.168-.76.463-1.511.821a12.421 12.421 0 0 1-5.742 1.413c-2.407-.037-6.342-1.174-8.042.479-.878 1.025-.994 2.627-.599 3.937.686 2.274 2.54 4.158 4.134 5.849a18.43 18.43 0 0 0 4.522 3.658 15.653 15.653 0 0 0 8.222 1.578c.442-.026.88-.068 1.315-.12a26.146 26.146 0 0 0 3.717-.757c.284-.079.566-.163.847-.25l.102-.032c.19-.06.38-.124.569-.188 5.028-1.709 9.66-4.673 14.425-6.968l.013-.007a50.291 50.291 0 0 1 4.59-1.975 62.185 62.185 0 0 1 7.676-2.142c1.804-.409 3.634-.791 5.45-1.225.522-.13 1.044-.261 1.566-.399a33.282 33.282 0 0 0 10.25-4.372c1.629-1.11 3.16-2.361 4.71-3.583.166-.147.341-.283.522-.411a38.022 38.022 0 0 1 4.377-3.037c.107-.061.216-.116.323-.175.204-.114.409-.224.617-.331 5.044-2.642 10.835-3.692 16.551-4.333 3.283-.388 6.588-.636 9.853-.917 4.966-.429 9.991-.799 14.853-1.888.235-.053.47-.106.704-.162.163-.039.325-.08.487-.12a48.812 48.812 0 0 0 1.355-.364c.417-.119.833-.245 1.246-.377l.163-.05c.177-.058.352-.122.529-.182.147-.215.361-.376.608-.461a28.906 28.906 0 0 0 13.67-9.934 1.139 1.139 0 0 1 1.587-.038c.429.432.447 1.13.041 1.582a30.931 30.931 0 0 1-13.509 10.115c.068.552.138 1.104.214 1.655l.02.134c.094.683.195 1.366.302 2.048l.02.125c.107.675.22 1.35.339 2.023l.031.177a115.02 115.02 0 0 0 2.437 10.736c.18.645.367 1.292.563 1.938.1.325.2.652.305.976a33.207 33.207 0 0 0 3.753 8.22l.045.07c.179.267.364.532.554.792l.003.004c.193.263.393.523.599.777l.089.107a21.87 21.87 0 0 0 .72.829c.146.159.296.317.448.472 1.438.983 2.623 2.375 4.11 3.385l.064.043c.49.33.989.646 1.491.957 1.805 1.103 3.697 2.078 5.585 3.01 2.643 1.306 5.333 2.519 8.036 3.696l.764.331c.609.264 1.218.525 1.828.786l.858.366 1.226.521c8.027 3.394 16.129 6.678 23.777 10.848.271.147.542.295.812.444.186.104.373.208.558.313a94.442 94.442 0 0 1 3.267 1.923l.234.147c.408.255.815.513 1.219.776.197.128.393.258.59.388a82.432 82.432 0 0 1 1.555 1.06l.124.086c.239.168.474.341.71.512a60.086 60.086 0 0 1 1.949 1.468l.162.127c.581.46 1.156.928 1.717 1.412.244.211.479.431.715.65a47.897 47.897 0 0 1 1.874 1.76c.157.157.327.337.504.527a19.986 19.986 0 0 0 1.057 1.019 7.518 7.518 0 0 0 2.697 1.735c.064.008.128.019.192.022 2.283.096 2.358-2.328 2.331-3.924-.005-.305-.016-.611-.026-.917-.009-.26-.026-.815-.09-1.493-.11-1.875-.271-3.746-.482-5.612-.104-.861-.212-1.72-.326-2.575-.27-1.9-.451-3.971-1.179-5.766-.687-1.694-1.883-2.67-3.431-3.598l-.319-.19-.303-.18c-.735-.401-1.481-.779-2.174-1.2a30.32 30.32 0 0 1-4.092-3.034c-.046-.039-.093-.075-.138-.114-4.134-3.603-7.714-7.715-12.051-11.101-.238-.185-.477-.371-.718-.554l-.102-.078a90.624 90.624 0 0 0-7.34-4.988c-5.441-3.335-11.333-6.386-17.532-8.171l-.252-.071c-.244-.069-.489-.132-.734-.197a49.687 49.687 0 0 0-1.369-.338l-.154-.037c-.294-.066-.59-.13-.886-.191-.366-.075-.732-.152-1.1-.217a.762.762 0 0 1-.191-.062c-.189.135-.381.266-.565.406l-.907-1.189c.28-.211.57-.414.859-.615l.133-1.166c.893-7.929 1.669-16.513.712-24.637a42.95 42.95 0 0 0-3.931-13.816 44.92 44.92 0 0 1-5.787 2.798 1.143 1.143 0 0 1-1.392-.765 1.15 1.15 0 0 1 .768-1.385 35.422 35.422 0 0 0 2.766-1.229 42.13 42.13 0 0 0 2.58-1.389 31.543 31.543 0 0 0-1.304-2.044 32.358 32.358 0 0 0-1.122-1.502Zm156.299 79.505a1.156 1.156 0 0 0-1.364.811 1.136 1.136 0 0 0 .815 1.359c4.117.781 8.335.891 12.488.326a1.16 1.16 0 0 0 1.109-1.131 1.136 1.136 0 0 0-1.137-1.106 37.08 37.08 0 0 1-11.911-.259Zm33.599-1.388a1.139 1.139 0 0 0-1.39-.766 24.512 24.512 0 0 1-7.503 1.526 1.124 1.124 0 0 0-1.065 1.429c.14.482.589.815 1.093.809 2.768-.113 5.5-.657 8.099-1.614a1.15 1.15 0 0 0 .766-1.384Zm-30.362-65.397c-1.244 1.438-1.93 3.379-3.361 4.582.36.931.46 1.941.292 2.923a8.369 8.369 0 0 0-.13 2.054c.093.609.277 1.201.545 1.756.614 1.363 1.447 2.624 1.918 4.052.347 1.112.513 2.272.493 3.436.28.013.561.03.841.046a63.578 63.578 0 0 1 3.086.243c.243.024.486.046.729.073.572.064 1.143.135 1.713.211.184.025.367.052.551.078.493.071.986.146 1.478.227.128.021.255.04.383.062l.286.047a36.481 36.481 0 0 1 .222-6.93 11.378 11.378 0 0 1-4.369-2.682c-.727-.725-1.509-1.669-.891-2.722.412-.524.7-1.134.843-1.785.053-.361.02-.731-.096-1.077-.014-.037-.102-.186-.119-.216.061.103.036-.013-.04-.019l-.003-.001-.041-.005-.066-.016c.004.003.001.007-.036.007a2.635 2.635 0 0 0-.234.011h-.011l-.05.011a5.03 5.03 0 0 0-.658.199 2.034 2.034 0 0 0-.289.122 1.15 1.15 0 0 1-1.667-.644 19.436 19.436 0 0 1-.62-2.409 10.448 10.448 0 0 1-.191-1.527c-.17-.032-.34-.069-.508-.107Zm-85.565-2.861a.86.86 0 0 1 .003.075.267.267 0 0 1 .031.081c.016.059.037.117.057.175l.038.072c.296.482.667.915 1.099 1.281a18.276 18.276 0 0 1 2.745 2.718c.683.96-.561 2.037-1.499 1.565a28.045 28.045 0 0 0-3.284-1.432 3.848 3.848 0 0 0-1.278-.278c-.046 0-.204.011-.251.014.029.003-.199.071-.086.018a.942.942 0 0 0-.089.047c-.022.036-.09.129-.045.038-.063.127-.043.087-.009.225.032.173.108.335.221.471.232.325.514.613.834.854.841.708 1.731 1.513 1.912 2.655a1.141 1.141 0 0 1-1.62 1.29c-.898-.388-1.791-.827-2.707-1.169-.147-.06-.3-.106-.455-.137-.022-.001-.129-.012-.176-.01-.007.016-.014.032-.023.047a1.082 1.082 0 0 0-.03.125l.005.091.009.092c.011.051.026.103.043.153.003-.014.102.202.129.245.179.257.387.493.62.703.591.567 1.13 1.188 1.607 1.854.897 1.284 1.564 2.709 2.487 3.977a17.091 17.091 0 0 0 5.219 4.661l.052-.197.035-.13c.594-2.268 1.463-4.554 3.174-6.194a7.814 7.814 0 0 1 2.219-1.488c.149-.068.301-.134.456-.194a6.428 6.428 0 0 1 2.98-.398 16.825 16.825 0 0 0-2.852-7.882 7.822 7.822 0 0 0-2.809-2.645 3.628 3.628 0 0 0-1.241-.344c.132.133.229.298.281.478a1.122 1.122 0 0 1-1.84 1.13 8.958 8.958 0 0 0-3.098-1.825 28.028 28.028 0 0 0-1.863-.602c-.308-.09-.617-.184-.929-.262-.031-.008-.056-.012-.081-.017a.543.543 0 0 1 .009.069ZM227.932 81.97c-.991.404-1.742 1.336-2.391 2.145a20.665 20.665 0 0 0-3.1 5.636 47.034 47.034 0 0 0-1.718 5.861c-.103.444-.204.889-.302 1.333.3.076.604.15.909.225 3.251.791 6.546 1.408 9.77 2.312 3.118.875 6.255 2.017 8.916 3.897a20.768 20.768 0 0 1 3.786 3.516 52.378 52.378 0 0 0 3.58 4.041 9.55 9.55 0 0 0 2.033 1.536 6.38 6.38 0 0 0 1.023.467c.142.049.292.085.439.126-.009-.026-.089-.224-.077-.208-.209-.43-.445-.848-.704-1.25a14.59 14.59 0 0 0-2.114-2.631c-1.023-1.019.522-2.636 1.548-1.621a14.19 14.19 0 0 0 3.222 2.42 13.962 13.962 0 0 0 3.279 1.291c.308.079.62.148.933.206.215.049.436.071.657.065.208.016.419-.007.619-.068.037-.01.171-.065.197-.073.094-.043-.073.034.076-.057a.112.112 0 0 0 .02-.018c-.017.048.017.024.011-.011.032-.038.03-.072-.002-.012l-.001-.005c-.02-.029.014-.048.007-.084a1.286 1.286 0 0 0-.284-.468 8.879 8.879 0 0 0-1.506-1.212l-3.665-2.663a1.152 1.152 0 0 1-.441-1.521c.3-.533.985-.729 1.525-.438.213.166.468.27.736.301-.114-.019.26.008.315.006.062-.002.124-.007.187-.013.011-.003.049-.012.118-.025.223-.034.435-.121.618-.254.181-.108.334-.259.443-.44.21-.392.258-.851.134-1.278a1.714 1.714 0 0 0-.872-1.05 1.136 1.136 0 0 1-.441-1.52 1.16 1.16 0 0 1 1.51-.444l.016.005-.011-.005c.053-.003.205-.015.182-.003a1.3 1.3 0 0 0 .176-.055c.012-.01.091-.054.129-.079a1.55 1.55 0 0 0 .552-.658.894.894 0 0 1 .043-.083.313.313 0 0 1 .018-.086c.001-.006.035-.187.045-.212.016-.209.005-.42-.034-.626a4.866 4.866 0 0 0-.639-1.547c-.445-.764-1.025-1.876-1.745-2.252a1.659 1.659 0 0 1-.094-.052.585.585 0 0 1-.125-.036l-.05-.019c.001.004-.004.01-.016.015l-.072.016-.007.002a.38.38 0 0 1-.105.045l-.041.015c.003.001 0 .007-.021.02-.009.009-.016.02-.025.028.337 1.007-1.132 1.932-1.857 1.101-1.513-1.735-3.703-2.411-5.897-2.989a50.436 50.436 0 0 1-6.513-2.06 33.775 33.775 0 0 1-6.313-3.439c-2.231-1.545-4.296-3.522-6.589-5.066Zm33.157 25.795.005-.002.001-.003c-.006 0-.008.002-.006.005Zm.007-.003.003-.002h-.004l.001.002Zm-6.039-13.294-.004.006c.005.061.009.034.011-.013l-.007.007Zm.011-.125.003.002.002-.024-.005.022Zm-68.557-27.142a1.134 1.134 0 0 0-1.108 1.133 23.741 23.741 0 0 0 5.367 12.703c.979 1.19 2.127 2.171 3.207 3.26.275.267.517.566.719.891.149.225.248.48.288.746.035.236.017.477-.052.706a.758.758 0 0 1-.265.386 1.147 1.147 0 0 0-.37 1.54c.327.517 1.02.682 1.545.368a3.458 3.458 0 0 0 1.212-3.95c-.523-1.624-1.95-2.652-3.119-3.799a21.447 21.447 0 0 1-5.041-7.753 21.396 21.396 0 0 1-1.245-5.126 1.16 1.16 0 0 0-1.138-1.105Zm35.547-63.215a17.59 17.59 0 0 0-7.28-.027 13.139 13.139 0 0 0-6.017 2.846 21.07 21.07 0 0 0-3.848 5.021 62.933 62.933 0 0 1-3.582 5.66 15.125 15.125 0 0 1-5.715 4.673 20.91 20.91 0 0 1-7.808 1.775 12.31 12.31 0 0 0-2.928.301 6.545 6.545 0 0 0-.424.14l-.178.073a5.254 5.254 0 0 0-.389.201c-.141.082-.274.174-.409.265-.018.012-.101.077-.137.104-.049.044-.1.087-.147.131a5.817 5.817 0 0 0-.641.711l-.082.115c-.051.078-.103.155-.152.234-.083.132-.163.267-.24.403-.356.635-.647 1.304-.938 1.97a16.048 16.048 0 0 1-2.366 4.135c-1.339 1.564-3.158 2.571-5.263 2.38-.956-.088-1.881-.32-2.824-.48a4.356 4.356 0 0 0-2.458.18.972.972 0 0 1-.86-.104 1.01 1.01 0 0 1-.531-.66 3.18 3.18 0 0 0-.083-.316l-.063-.167-.08-.153c-.046-.08-.098-.154-.147-.231a1.462 1.462 0 0 0-.286-.338 5.472 5.472 0 0 0-.438-.395 9.23 9.23 0 0 0-2.136-1.159 22.082 22.082 0 0 0-3.403-1.004c.093 1.975.34 4.018 1.483 5.652a4.957 4.957 0 0 0 1.956 1.647l.006.003.067.028a3.36 3.36 0 0 0 2.375.173l.017-.005.033-.006c.472-.139.981.073 1.214.504.085.145.14.306.162.472a3.037 3.037 0 0 1 1.245.063l.003.002c.305.072.596.196.858.366.494.334.88.803 1.114 1.35.122.264.211.543.265.83.007.033.01.066.016.1.01.053.019.107.026.161l.01.07c.045.349.052.703.021 1.053a9.163 9.163 0 0 1-.679 2.507l-.321.833-.059.154-.025.068a4.084 4.084 0 0 0-.029 3.321c.159.33.342.648.547.95a9.578 9.578 0 0 0 4.455 3.372l.033.018a14.68 14.68 0 0 0 8.742.274c5.581-1.5 10.125-5.301 14.813-8.48a62.584 62.584 0 0 1 2.608-1.677c.432-.26.871-.514 1.312-.76l1.383-.735c3.184-1.6 6.596-2.686 10.225-2.59 4.931.139 9.618 2.2 13.045 5.736 3.495 3.612 5.729 8.345 9.697 11.515 3.274 2.616 7.623 3.586 11.746 3.229a18.213 18.213 0 0 0 11.287-5.319c.49-.494.953-1.015 1.386-1.56l.42-.547.003-.004a20.396 20.396 0 0 0 1.249-1.9l.636-1.176a23.795 23.795 0 0 0 1.97-5.677c.437-2.083.631-4.21.576-6.338a29.996 29.996 0 0 0-.625-5.5 32.455 32.455 0 0 0-4.08-10.67 19.777 19.777 0 0 0-3.509-4.338 14.015 14.015 0 0 0-4.29-2.749c-4.403-1.7-9.132-.235-13.683-.85a14.103 14.103 0 0 1-6.361-2.689c-1.881-1.359-3.555-2.969-5.397-4.374a14.927 14.927 0 0 0-6.093-2.79Zm-58.545 35.917c-.723 1.12-1.239 2.38-2.194 3.294.155.44.224.907.202 1.373-.028.76-.233 1.516-.285 2.26a8.014 8.014 0 0 0 .871 3.772 48.422 48.422 0 0 1 2.104 4.745 89.13 89.13 0 0 1 7.7 1.11 1.37 1.37 0 0 1 .893-.17l.347.05c.028-.241.053-.483.078-.725-.062-.029-.125-.057-.186-.087a10.54 10.54 0 0 1-4.721-4.233c-.038-.064-.073-.13-.109-.196-.044-.082-.095-.161-.137-.246-.023-.045-.041-.091-.063-.136l-.053-.117a6.965 6.965 0 0 1-.16-.377c-.03-.076-.057-.153-.084-.229a7.28 7.28 0 0 1-.172-.568 4.72 4.72 0 0 1-.053-.242 5.618 5.618 0 0 1-.06-.317 4.138 4.138 0 0 1-.028-.227c-.012-.11-.026-.22-.031-.33-.005-.08-.004-.162-.004-.242-.001-.106-.005-.212.001-.32.008-.185.026-.37.053-.555l.001-.017c.019-.121.046-.24.073-.359.011-.052.017-.104.03-.157.273-.884.592-1.754.956-2.605l.013-.035c.032-.09.061-.183.09-.275.022-.067.044-.134.064-.201.029-.099.055-.2.079-.3.011-.045.023-.09.033-.137.009-.042.015-.086.024-.13.017-.091.034-.183.046-.275.005-.045.008-.092.011-.137.008-.089.013-.177.014-.265 0-.053-.004-.107-.007-.16a2.327 2.327 0 0 0-.083-.513 1.394 1.394 0 0 0-.279-.508 2.111 2.111 0 0 1-.072-.063l-.017-.01a2.075 2.075 0 0 1-.112-.051l-.058-.014a1.69 1.69 0 0 1-.179-.035l-.033-.002h-.104a1.8 1.8 0 0 0-.116.015c-.04.01-.079.023-.119.034a1.347 1.347 0 0 1-.098.032 1.653 1.653 0 0 0-.101.059l-.023.022v.046l-.001.005-.001.028c-.03.444-.308.835-.716 1.011a.944.944 0 0 1-1.168-.203l-.012-.013a3.152 3.152 0 0 1-.726-1.822 5.63 5.63 0 0 1-1.318-.252ZM94.239 19.707l2.583 2.853c.355.357.441.905.21 1.352a1.138 1.138 0 0 1-1.26.544 12.062 12.062 0 0 0-2.743-.6 12.85 12.85 0 0 0-1.218-.042c.065.069.127.14.193.207a11.9 11.9 0 0 0 1.037.928c.678.527 1.417.973 2.2 1.328 1.185.555.385 2.355-.818 2.065-.673-.163-1.483-.413-2.157-.123a1.348 1.348 0 0 0-.38.337.407.407 0 0 0-.03.076c.007-.028-.024-.124-.005.024l.001.01c.01.104.042.206.093.299.426.59.998 1.061 1.66 1.367.698.407 1.434.745 2.168 1.082a21.776 21.776 0 0 1 3.803 2.148 23.59 23.59 0 0 1 3.154 2.794c1.988 2.086 3.683 4.42 5.523 6.63a77.129 77.129 0 0 0 6.752 7.115c.285-.573.583-1.133.892-1.678a35.105 35.105 0 0 1 6.122-7.873 111.985 111.985 0 0 0-3.105-3.182 118.387 118.387 0 0 0-5.472-5.048 45.305 45.305 0 0 1-5.07-4.8 17.352 17.352 0 0 1-2.066-2.954 15.574 15.574 0 0 0-1.696-2.864 6.469 6.469 0 0 0-2.987-1.91l.497 1.127a1.1 1.1 0 0 1-.378 1.174c-.353.28-.843.326-1.243.116l-5.32-2.32a7.897 7.897 0 0 0-1.22-.484c.093.101.189.202.28.302Zm-.843-.352h.03-.03Z" fill="#000"/></svg>