<svg fill="none" xmlns="http://www.w3.org/2000/svg" viewBox="0 0 350 650"><path d="M144.307 354.473a.042.042 0 0 1 .002-.033l.008-.007a.095.095 0 0 0-.01.04Zm.01-.045-.001.004-.007.008.008-.016v.004Zm.068-.068-.015.001-.03-.008a.078.078 0 0 1 .045.007Zm-.4-.271.074.036c.044.025.087.054.13.08l.046.038c.008.007.024.026.038.042l.024.044.005.014-.01-.002a1.04 1.04 0 0 1-.048-.012.058.058 0 0 0-.014-.008c-.045-.025-.091-.049-.135-.076l-.032-.021a.135.135 0 0 0-.048-.047c-.026-.021-.053-.042-.074-.062a1.358 1.358 0 0 1-.05-.057c.03.014.062.025.094.031Zm.075.136c.004.004.007.006.01.011l-.015-.015.005.004Z" fill="currentColor"/><path d="m144.055 354.221-.018-.013c-.03-.019-.035-.032-.024-.03a.426.426 0 0 1 .042.043Zm.252-11.105a.042.042 0 0 1 .002-.033l.008-.007a.091.091 0 0 0-.01.04Z" fill="currentColor"/><path d="m144.317 343.071-.001.004-.007.008.008-.016v.004Z" fill="currentColor"/><path d="m144.318 343.075-.002.002v-.002h.002Zm.067-.072h-.015l-.03-.007a.078.078 0 0 1 .045.007Zm-.4-.27c.025.012.05.023.074.036.044.024.087.054.13.079l.046.038.038.042.024.044.005.015-.01-.002-.048-.013-.014-.008c-.045-.024-.091-.048-.135-.076-.011-.006-.021-.014-.032-.021a.14.14 0 0 0-.048-.046c-.026-.021-.053-.042-.074-.063a1.33 1.33 0 0 1-.05-.056.45.45 0 0 0 .094.031Zm.075.135c.004.004.007.006.01.011l-.015-.015.005.004Z" fill="currentColor"/><path d="m144.055 342.864-.018-.013c-.03-.019-.035-.032-.024-.03a.342.342 0 0 1 .042.043Zm22.503-273.071a.71.71 0 0 1 .487.193l.772.858a.69.69 0 0 1 .177.303l.025.183a.687.687 0 0 1-.202.485.707.707 0 0 1-.717.155 5.117 5.117 0 0 1-2.054 1.68.8.8 0 0 1-.53.07.7.7 0 0 1-.412-.315.706.706 0 0 1-.069-.529.691.691 0 0 1 .316-.41c.305-.135.594-.303.863-.5.258-.207.494-.441.702-.698a4.56 4.56 0 0 0 .188-.273l-.033-.038a.693.693 0 0 1-.177-.303l-.025-.182a.698.698 0 0 1 .202-.486.71.71 0 0 1 .487-.193Zm-1.523-5.461c.066.003.132.013.196.027a.768.768 0 0 1 .374.224c.043.047.082.098.117.152.03.059.056.12.077.183a1.722 1.722 0 0 1 .071.481c-.002.055-.011.11-.019.165-.007.054-.013.11-.025.163a1.649 1.649 0 0 1-.192.441.695.695 0 0 1-.247.247c-.055.022-.11.046-.164.069a.705.705 0 0 1-.531-.07.707.707 0 0 1-.329-.683.514.514 0 0 1 .082-.255l.006-.01a.534.534 0 0 1-.082-.15.515.515 0 0 1-.06-.264.572.572 0 0 1 .027-.2l.069-.165a.465.465 0 0 1 .11-.144.713.713 0 0 1 .52-.211Zm-.663-3.383c.33-.112.684-.138 1.026-.075.118.016.235.047.345.091.161.058.315.136.457.232.102.06.187.145.247.247l.07.163a.688.688 0 0 1-1.012.775 1.452 1.452 0 0 0-.185-.111 1.427 1.427 0 0 0-.195-.054 1.447 1.447 0 0 0-.192.001 1.456 1.456 0 0 0-.196.054.679.679 0 0 1-.53-.07.692.692 0 0 1-.316-.408.7.7 0 0 1 .069-.53.74.74 0 0 1 .412-.315Z" fill="currentColor"/><path fill-rule="evenodd" clip-rule="evenodd" d="M197.684 29.215c1.066-.532 2.384-1.032 3.585-.706 1.243.338 1.935 1.574 1.943 2.803.009 1.311-.643 2.59-1.229 3.738a49.54 49.54 0 0 1 3.608-2.934c.93-.724 1.94-1.341 3.01-1.838 2.205-.952 4.858-.898 6.847.558a3.574 3.574 0 0 1 1.564 2.837 5.028 5.028 0 0 1-.974 2.918c-.054.078-.113.151-.171.225a6.908 6.908 0 0 1 3.54.145c.741.241 1.386.71 1.841 1.341.417.623.647 1.352.665 2.1.066 1.608-.81 3.076-1.846 4.237-.138.155-.282.305-.428.451.489-.06.982-.096 1.475-.104a12.32 12.32 0 0 1 2.496.191 2.005 2.005 0 0 1 1.61 1.167c.286.817-.278 1.588-.729 2.221a15.374 15.374 0 0 1-1.349 1.645 15.107 15.107 0 0 1-3.856 2.927c.175.032.349.068.523.11 1.017.243 2.096 1.06 1.651 2.234a4.46 4.46 0 0 1-.97 1.366c-.36.38-.753.726-1.176 1.035-.297.221-.61.423-.934.603.345.125.682.272 1.01.437.648.33 1.308.805 1.352 1.597.037.662-.392 1.235-.829 1.687a6.327 6.327 0 0 1-1.389 1.065c-.874.483-1.812.84-2.787 1.06a43.631 43.631 0 0 1 5.493 21.265 45.022 45.022 0 0 1-.526 6.781 43.572 43.572 0 0 1-4.085 12.814l-.112.22a.804.804 0 0 1-.079.252 44.05 44.05 0 0 1-17.762 18.4 44.213 44.213 0 0 1-45.064-1.187 44.04 44.04 0 0 1-15.761-17.213.786.786 0 0 1-.077-.245 43.573 43.573 0 0 1-3.478-9.397 44.109 44.109 0 0 1-1.115-13.82 43.632 43.632 0 0 1 3.126-13.21 44.367 44.367 0 0 1 6.829-11.38 44.12 44.12 0 0 1 21.967-14.326 44.486 44.486 0 0 1 20.828-.783c.032-.024.062-.051.096-.074a1.53 1.53 0 0 1 2.092.406 35.503 35.503 0 0 1 2.525-5.733 24.4 24.4 0 0 1 4.249-5.853c.825-.815 1.77-1.5 2.801-2.033Zm-17.373 92.588a.69.69 0 0 0-.52.069 26.166 26.166 0 0 0-3.598 2.788.693.693 0 0 0 0 .97.706.706 0 0 0 .973 0 26.034 26.034 0 0 1 1.645-1.397l.018-.013.095-.072.203-.152c.144-.107.291-.214.437-.318.303-.213.611-.42.922-.621a.685.685 0 0 0-.175-1.254Zm-13.619 1.509a.679.679 0 0 0-.346.094l-.641.383a.763.763 0 0 0-.316.41.517.517 0 0 0-.013.273c.004.091.032.18.082.256l.107.139a.681.681 0 0 0 .304.176l.183.025a.692.692 0 0 0 .347-.094l.641-.383a.765.765 0 0 0 .316-.411.517.517 0 0 0 .012-.273.512.512 0 0 0-.081-.255l-.108-.14a.703.703 0 0 0-.303-.176l-.184-.024Zm25.358-1.66a.686.686 0 0 0-.348.094l-.256.127a.707.707 0 0 0-.329.684.513.513 0 0 0 .082.255l.108.139a.683.683 0 0 0 .303.176l.184.025a.694.694 0 0 0 .347-.093l.255-.128a.77.77 0 0 0 .317-.41.52.52 0 0 0 .012-.274.503.503 0 0 0-.082-.255 12.944 12.944 0 0 0-.107-.139.693.693 0 0 0-.304-.177l-.182-.024Zm-25.14-4.692a.69.69 0 0 0-.486.2.704.704 0 0 0 0 .971c.014.018.097.123.105.131a5.443 5.443 0 0 1 .362.555c.067.12.131.243.19.368l.066.153c.023.059.047.117.068.176.099.279.175.566.228.857.004.022.022.15.026.166.006.059.014.119.018.179.013.157.018.316.017.474a.694.694 0 0 0 .688.686.704.704 0 0 0 .689-.686 6.222 6.222 0 0 0-1.484-4.03.693.693 0 0 0-.487-.2Zm20.017 2.393a.709.709 0 0 0-.689.687l.025.182a.685.685 0 0 0 .177.303l.139.107a.686.686 0 0 0 .348.094h.257a.711.711 0 0 0 .628-.423.513.513 0 0 0 .059-.263l-.024-.183a.695.695 0 0 0-.177-.303l-.14-.107a.681.681 0 0 0-.346-.094h-.257Zm-24.589-.511a.707.707 0 0 0-.688.687l.025.181c.031.115.092.22.176.304l.14.108a.691.691 0 0 0 .347.093h.129a.704.704 0 0 0 .629-.423.522.522 0 0 0 .058-.263l-.024-.183a.695.695 0 0 0-.177-.303l-.14-.107a.689.689 0 0 0-.346-.094h-.129Zm14.599-.766a.703.703 0 0 0-.481.207.703.703 0 0 0-.207.479l.024.183a.697.697 0 0 0 .178.303l.139.107a.692.692 0 0 0 .347.094h.128a.708.708 0 0 0 .689-.687l-.025-.182a.678.678 0 0 0-.176-.303l-.14-.108a.685.685 0 0 0-.348-.093h-.128Zm19.467-.766a.69.69 0 0 0-.667.686.685.685 0 0 0 .667.686.688.688 0 0 0 .472-1.163.69.69 0 0 0-.472-.209Zm-42.006-.128a.707.707 0 0 0-.688.687l.024.181c.032.115.093.22.177.304l.14.107a.682.682 0 0 0 .347.094h.128a.701.701 0 0 0 .629-.423.513.513 0 0 0 .059-.263l-.025-.183a.683.683 0 0 0-.176-.303l-.14-.107a.682.682 0 0 0-.347-.094h-.128Zm32.986-7.388a.673.673 0 0 0-.417.326.675.675 0 0 0-.063.524 11.793 11.793 0 0 0 4.105 5.803.692.692 0 0 0 .941-.246.706.706 0 0 0-.246-.94 10.244 10.244 0 0 1-3.472-4.982.676.676 0 0 0-.579-.504.697.697 0 0 0-.269.019Zm-26.604 2.059a1.316 1.316 0 0 0-.529.102 5.184 5.184 0 0 0-1.506.733 5.49 5.49 0 0 0-2.048 2.743.692.692 0 0 0 .482.844.706.706 0 0 0 .846-.479c.032-.094.066-.189.103-.282l.013-.029.057-.12a4.707 4.707 0 0 1 .389-.643c.01-.013.058-.074.064-.084a4.883 4.883 0 0 1 .57-.589l.102-.086.084-.064c.062-.044.124-.09.188-.132.164-.108.336-.205.512-.292l.122-.058.022-.01.012-.004c.091-.036.183-.071.277-.101.021-.007.044-.012.065-.018a.702.702 0 0 0 .921-.041.793.793 0 0 0 .223-.693.79.79 0 0 0-.443-.578 1.324 1.324 0 0 0-.526-.119Zm42.268 2.27a.524.524 0 0 0-.275.011l-.164.07a.685.685 0 0 0-.247.246 27.21 27.21 0 0 0-.069.164.685.685 0 0 0 0 .365l.125.384a.768.768 0 0 0 .316.41.52.52 0 0 0 .256.082c.091.02.186.016.275-.013l.164-.069a.693.693 0 0 0 .247-.246l.069-.164a.692.692 0 0 0 0-.364 57.423 57.423 0 0 0-.125-.385.773.773 0 0 0-.316-.41.5.5 0 0 0-.256-.081Zm-19.835-.389a.688.688 0 0 0-.348.094l-.64.382a.779.779 0 0 0-.316.411.53.53 0 0 0-.013.274.523.523 0 0 0 .082.255l.108.139a.681.681 0 0 0 .304.176l.182.025a.699.699 0 0 0 .348-.094l.64-.383a.77.77 0 0 0 .317-.41.53.53 0 0 0 .012-.274.512.512 0 0 0-.081-.255l-.109-.139a.693.693 0 0 0-.304-.177l-.182-.024Zm1.117-24.804.054.429c.139.863.217 1.736.231 2.61-.001.063-.002.126-.005.189l-.014.205a4.032 4.032 0 0 1-.022.19l-.001.005-.001.004c-.002.016-.003.033-.006.049a.45.45 0 0 1-.008.063l-.003.02a.174.174 0 0 0-.005.021c-.003.014-.004.03-.008.043l-.009.043-.004.01a2.827 2.827 0 0 1-.886 1.339l-.032.028-.104.091c-.058.05-.117.099-.177.146l-.029.022c-.048.036-.094.073-.143.107a9.025 9.025 0 0 0-.068.05 7.03 7.03 0 0 1-2.024.92c-.138.041-.277.082-.415.12l-.115.028-.116.03c-.962.251-1.942.455-2.917.646l-.156.029-.485.09c-.136.024-.272.048-.408.07-.034.006-.068.013-.103.018-.129.021-.26.04-.39.059-.681.101-1.366.179-2.053.213a12.143 12.143 0 0 1-5.616-.96l-.025-.01a7.818 7.818 0 0 1-1.165-.645 8.608 8.608 0 0 1-.611-.445 2.852 2.852 0 0 1-.567-.508.588.588 0 0 1-.14-.485 3.77 3.77 0 0 1 .039-.45 105.852 105.852 0 0 0 .178-2.549l.009-.177.014-.287-.018.002-.255.035a25.68 25.68 0 0 0-2.33.409 7.824 7.824 0 0 0-3.345 1.526 4.763 4.763 0 0 0-1.303 1.693c-.004.015-.007.03-.012.044a3.584 3.584 0 0 0-.247 1.244c0 .068.003.137.008.203l.001.012c.007.071.017.143.03.214l.002.01c.012.07.029.14.048.208l.019.056a1.666 1.666 0 0 0 .241.497c.233.312.536.566.883.743.117.063.237.12.358.176.456.181.921.34 1.393.475.568.167 1.125.37 1.667.607a.598.598 0 0 1 .335.57.708.708 0 0 1-.335.615 3.892 3.892 0 0 0-1.106.931 3.837 3.837 0 0 0-.751 1.491c-.007.027-.016.053-.022.08l-.016.086c-.01.054-.022.108-.03.162l-.005.039c-.01.069-.019.139-.024.209l-.001.033a3.83 3.83 0 0 0-.01.214l.002.087c.001.07.003.14.007.209.002.033.006.066.009.098.005.065.011.131.019.196.005.037.013.075.019.112.009.06.018.12.029.179.009.045.021.089.03.134.012.051.023.103.036.154.013.054.029.109.044.162.012.041.023.082.036.122.02.067.043.133.066.199l.027.082c.029.08.061.16.093.24l.015.036c.354.806.78 1.578 1.273 2.308l.037.059c.045.07.092.139.138.208.051.077.101.154.153.23l.152.216.142.202.177.236c.043.057.085.116.129.173.066.086.135.171.203.256l.116.144c.076.093.154.184.232.275l.099.116c.088.1.179.2.269.298l.074.082c.101.107.203.213.307.317.016.017.032.035.049.051.116.116.235.231.355.343l.013.011a12.475 12.475 0 0 0 2.89 2.037l.045.023c.087.043.176.083.264.124.07.033.14.068.211.099l.053.021a9.372 9.372 0 0 0 6.528.421l.255-.085c.078-.027.155-.056.232-.086.031-.012.06-.027.09-.039.13-.052.259-.105.387-.164.064-.03.127-.064.19-.096.092-.045.185-.089.276-.138.091-.05.181-.103.27-.156l.179-.103c.091-.056.181-.115.27-.173.055-.036.112-.07.166-.106.087-.059.173-.12.258-.181l.168-.119.236-.18c.059-.045.119-.089.177-.136.07-.055.138-.113.206-.17.065-.053.132-.106.197-.161.059-.05.118-.103.177-.155.072-.062.143-.124.213-.188.056-.049.11-.101.165-.152l.216-.2c.067-.063.133-.128.199-.192l.17-.165c.155-.153.307-.311.46-.466.102-.104.205-.207.306-.312l.085-.092a39.123 39.123 0 0 0 1.749-1.962c.107-.128.217-.255.322-.384l.134-.17c.067-.084.134-.169.199-.254l.14-.191c.06-.081.122-.163.181-.247.045-.064.088-.129.132-.194.058-.085.117-.17.173-.256.041-.064.08-.13.12-.194.055-.089.112-.178.164-.269.038-.065.073-.132.11-.198.051-.092.103-.184.151-.277.034-.068.066-.137.099-.205.045-.095.091-.189.133-.285.031-.07.059-.143.088-.214.039-.095.079-.19.115-.287.028-.076.051-.156.077-.234.03-.093.062-.186.09-.28.027-.096.048-.192.072-.288.02-.085.044-.17.061-.255.022-.103.038-.208.055-.312.013-.077.029-.155.039-.233.017-.128.027-.257.038-.385.005-.054.012-.108.016-.162a8.27 8.27 0 0 0 .015-.522v-.026a8.116 8.116 0 0 0-.324-2.206.698.698 0 0 1 .118-.597.692.692 0 0 1 .545-.272 7.275 7.275 0 0 0 1.053-.004l.063-.004c.064-.005.128-.013.192-.02l.098-.011c.054-.007.108-.016.163-.025l.127-.02.137-.026a3.82 3.82 0 0 0 .154-.033l.113-.027a6.332 6.332 0 0 0 .461-.133l.073-.024c.07-.025.14-.05.209-.078l.055-.022c.075-.03.149-.063.222-.096l.038-.018c.08-.038.16-.077.238-.12l.016-.008a4.73 4.73 0 0 0 .955-.676 4.578 4.578 0 0 0 .811-.98l.038-.06c.45-.761.66-1.64.603-2.521a3.684 3.684 0 0 0-.064-.418c-.342-1.426-1.431-2.485-2.743-3.148-1.401-.707-3.051-.863-4.645-.88.022.17.042.341.063.511Zm-30.216 20.821a.707.707 0 0 0-.487.195 6.362 6.362 0 0 1-1.675 1.061 6.933 6.933 0 0 1-1.056.326 8.04 8.04 0 0 1-.27.052c-.019.004-.181.027-.192.03a7.472 7.472 0 0 1-.518.039.694.694 0 0 0-.483.204.696.696 0 0 0-.206.482.698.698 0 0 0 .689.687 7.414 7.414 0 0 0 4.684-1.91.692.692 0 0 0 0-.971.702.702 0 0 0-.486-.195Zm45.939-1.898a8.579 8.579 0 0 0-6.589.944c-.755.459-.065 1.646.694 1.185a7.17 7.17 0 0 1 2.683-.965 7.169 7.169 0 0 1 2.846.16c.857.226 1.222-1.097.366-1.324Zm8.133.518a.704.704 0 0 0-.688.686l.024.182a.69.69 0 0 0 .177.303l.14.108a.69.69 0 0 0 .346.093h.513a.717.717 0 0 0 .376-.119.717.717 0 0 0 .253-.303.515.515 0 0 0 .06-.264l-.025-.182a.673.673 0 0 0-.178-.303l-.138-.108a.687.687 0 0 0-.348-.093h-.512Zm-59.807-6.385a.678.678 0 0 0-.487.201 9.89 9.89 0 0 0-2.648 4.892.674.674 0 0 0 .063.524.686.686 0 0 0 .942.259.676.676 0 0 0 .323-.418 8.484 8.484 0 0 1 2.294-4.286.701.701 0 0 0 .15-.223.696.696 0 0 0-.15-.748.676.676 0 0 0-.487-.201Zm2.945 4.341a.689.689 0 0 0-.666.686.688.688 0 0 0 .666.687.688.688 0 0 0 0-1.373Zm61.216-.766a.688.688 0 0 0 0 1.373.685.685 0 0 0 0-1.373Zm-3.15-3.15a4.923 4.923 0 0 0-5.044 2.056.69.69 0 0 0 .247.939.708.708 0 0 0 .941-.246c.029-.043.058-.086.088-.127l.044-.058.059-.069.083-.092c.133-.143.276-.277.428-.399l.009-.007.023-.017.101-.07a3.876 3.876 0 0 1 .619-.349l.076-.031a4.236 4.236 0 0 1 .894-.241l.019-.002c.195-.02.391-.026.586-.02.09.004.179.013.269.021l.009.001c.061.01.121.022.182.035a.707.707 0 0 0 .521-.07.707.707 0 0 0 .326-.411.696.696 0 0 0-.48-.843Zm-68.183 1.49a.688.688 0 0 0 0 1.373.688.688 0 0 0 0-1.373Zm43.768-60.189a43.466 43.466 0 0 0-12.8-.434 42.271 42.271 0 0 0-12.645 3.49 42.722 42.722 0 0 0-22.079 23.072 42.555 42.555 0 0 0 .13 31.89 43.07 43.07 0 0 0 1.07 2.396 36.753 36.753 0 0 1 2.796-2.481c4.765-3.814 10.325-6.535 16.134-8.372a6.083 6.083 0 0 1 1.756-2.162c1.92-1.508 4.379-1.907 6.753-2.189.019-.443.036-.886.051-1.33a16.25 16.25 0 0 0-.031-2.105 5.46 5.46 0 0 0-.299-1.349 3.83 3.83 0 0 0-1.39-1.795 8.54 8.54 0 0 1-1.726-1.574 9.99 9.99 0 0 1-1.963-4.284 21.054 21.054 0 0 1-.335-4.6 6.46 6.46 0 0 1-.464-.29 5.09 5.09 0 0 1-1.046-.765 1.354 1.354 0 0 1-.273-1.295 3.58 3.58 0 0 1 .717-1.013c.388-.49.743-1.004 1.062-1.54l.003-.005c.031-.124.081-.247.119-.37a23.229 23.229 0 0 0 .538-2.145c.191-.918.35-1.843.536-2.762a26.232 26.232 0 0 1 1.125-4.081 16.375 16.375 0 0 1-1.746-.359c-1.13-.298-2.389-.669-3.092-1.67a2.074 2.074 0 0 1 .553-3.006 5.77 5.77 0 0 1 1.341-.667 34.2 34.2 0 0 0 1.534-.646c1.104-.497 2.191-1.034 3.298-1.524 2.09-.926 4.26-1.69 6.572-1.724a8.562 8.562 0 0 1 5.307 1.583.479.479 0 0 1 .198-.02 13.145 13.145 0 0 1 8.31 4.43 13.077 13.077 0 0 1 3.198 8.839c-.045 2.308-.79 4.468-1.711 6.56a224.017 224.017 0 0 1-2.126 4.647c-.06.391-.12.783-.175 1.175a32.821 32.821 0 0 0-.315 5.877c.063 1.689.223 3.374.258 5.064.006.292.009.58.02.868 1.902.016 3.836.219 5.545 1.106 1.558.81 2.884 2.194 3.3 3.93.012.055.02.11.031.165a59.265 59.265 0 0 1 5.84 1.754c6.168 2.219 12.065 5.512 16.758 10.121a42.033 42.033 0 0 0 2.152-5.325 42.952 42.952 0 0 0 1.594-19.735 42.426 42.426 0 0 0-5.037-14.446 35.937 35.937 0 0 1-7.255.245c-5.555-.23-11.081-.873-16.6-1.516a.71.71 0 0 1-.689-.686 13.905 13.905 0 0 0-.231-2.902 14.73 14.73 0 0 0-5.234-8.727.617.617 0 0 1-.182-.617.864.864 0 0 1-.205-.475 11.32 11.32 0 0 1 .049-2.965c.118-.838.335-1.66.647-2.446.107-.27.222-.547.354-.815Zm-28.528 59.039a.689.689 0 0 0-.472 1.165.695.695 0 0 0 .472.209.688.688 0 0 0 0-1.374Zm36.845-3.06a.692.692 0 0 0-.684.335.776.776 0 0 0-.069.529l.385 2.171a.687.687 0 0 0 1.258.164.781.781 0 0 0 .069-.529l-.384-2.171a.687.687 0 0 0-.575-.498Zm5.78-1.776a.69.69 0 0 0-.481.842 6.306 6.306 0 0 1 .183.794c.003.015.005.041.007.063l-.004-.055c.008.103.024.206.032.31a6.18 6.18 0 0 1-.033 1.268.679.679 0 0 0 .202.486.698.698 0 0 0 .487.201.697.697 0 0 0 .487-.201.804.804 0 0 0 .201-.486 6.722 6.722 0 0 0-.234-2.745.689.689 0 0 0-.847-.477Zm-44.93.75a.69.69 0 0 0-.667.686.692.692 0 0 0 .667.687.691.691 0 0 0 .667-.687.693.693 0 0 0-.667-.686Zm13.827-41.095a16.798 16.798 0 0 1-3.857.2 16.94 16.94 0 0 0-.426 1.195 44.714 44.714 0 0 0-1.144 5.048c-.18.942-.38 1.881-.652 2.801a4.34 4.34 0 0 1-.348.934c-.138.24-.297.47-.455.697a21.245 21.245 0 0 1-1.068 1.395l-.078.092a.864.864 0 0 0 .057.047c.171.117.341.236.513.353.158.107.318.213.483.31.062.035.126.072.191.103.013.002.065.02.09.026a.7.7 0 0 1 .506.662c-.035 1.853-.029 3.684.47 5.484a7.767 7.767 0 0 0 2.165 3.68c.562.518 1.236.892 1.739 1.477a5.32 5.32 0 0 1 1.045 1.878c.426 1.343.35 2.795.298 4.183-.017.455-.036.91-.057 1.364.001.01.003.022.002.032-.016.369-.04.738-.06 1.107-.009.156-.017.313-.027.469-.014.247-.027.496-.044.743l.001.006c-.007.111-.018.222-.026.333-.031.45-.065.9-.103 1.35.08.069.157.14.239.204.054.042.111.08.167.12.107.08.216.158.328.23.068.044.138.085.207.126.107.065.216.128.326.187a9.15 9.15 0 0 0 3.197.975 15.684 15.684 0 0 0 4.208-.142 27.484 27.484 0 0 0 .793-.134 40.693 40.693 0 0 0 .63-.12c.276-.055.552-.114.827-.172.334-.072.666-.146.993-.22l.112-.025c.17-.04.342-.078.512-.12.131-.03.263-.062.393-.096l.108-.028a13.093 13.093 0 0 0 .528-.152c.126-.039.251-.082.375-.127.075-.027.153-.052.226-.082l.033-.012a5.49 5.49 0 0 0 .611-.294l.062-.035c.02-.011.038-.023.057-.035.25-.148.48-.33.683-.537a2.09 2.09 0 0 0 .23-.283l.004-.008.046-.075c.036-.06.073-.12.105-.181l.004-.01.004-.01a.2.2 0 0 1 .012-.033l-.016.043a.385.385 0 0 1 .017-.09c-.004.011-.004.003-.002-.014-.001-.02-.001-.033.004-.02.006-.038.016-.093.02-.134a4.39 4.39 0 0 0 .004-.281l-.001-.093.001-.005a7.685 7.685 0 0 0-.015-.37 22.9 22.9 0 0 0-.056-.741c-.09-.974-.231-1.942-.341-2.913a3.243 3.243 0 0 1-.011-.104 7.365 7.365 0 0 1-.017-.144c-.057-.536-.04-1.074-.054-1.612a61.963 61.963 0 0 0-.118-2.437 45.545 45.545 0 0 1-.137-5.199 32 32 0 0 1 .171-1.981.71.71 0 0 1-.168-.06 14.57 14.57 0 0 1-3.912-3.085 15.87 15.87 0 0 1-.771-.94 3.78 3.78 0 0 1-.595-.94c-.299-.805.282-1.487.658-2.147.664-1.162 1.247-2.535.921-3.827-.275-1.088-1.144-1.922-2.373-1.72-1.285.212-2.088 1.336-2.411 2.512a.695.695 0 0 1-.754.48.696.696 0 0 1-.599-.663c-.08-1.325-.664-2.565-.829-3.88a4.76 4.76 0 0 1 .247-2.333c-.428.01-.86.053-1.286.038a3.461 3.461 0 0 1-1.914-.55 2.1 2.1 0 0 1-.898-1.666v-.004Z" fill="currentColor"/><path fill-rule="evenodd" clip-rule="evenodd" d="M147.214 5.38a86.07 86.07 0 0 1 69.373 4.18 85.74 85.74 0 0 1 33.884 31.532 85.415 85.415 0 0 1 12.327 49.962 85.414 85.414 0 0 1-12.899 39.961 85.712 85.712 0 0 1-30.404 29.037 85.668 85.668 0 0 1-19.605 8.091c-3.496.956-7.338 1.266-10.571 2.972a15.538 15.538 0 0 0-7.163 7.899c-1.254 3.14-1.093 6.381-1.093 9.675v34.796c.119.063.235.132.347.207a4.503 4.503 0 0 1 1.995 3.718v13.842a57.991 57.991 0 0 1 8.349-5.353 60.608 60.608 0 0 1 5.107-2.374 40.839 40.839 0 0 1 5.187-1.823c1.67-.433 3.593-.558 4.973.657 1.259 1.108 1.476 3.033 1.03 4.567-.523 1.797-1.836 3.223-3.109 4.537a83.98 83.98 0 0 1-6.095 5.696 7.694 7.694 0 0 1 1.838-.067 7.88 7.88 0 0 1 3.991 1.491 7.438 7.438 0 0 1 2.476 3.047c.903 2.088.957 4.397.6 6.615a18.3 18.3 0 0 1-4.163 8.896c.208.237.409.48.6.732a13.036 13.036 0 0 1 2.511 8.778 13.566 13.566 0 0 1-3.705 8.263 15.316 15.316 0 0 1-4.727 3.4 34.339 34.339 0 0 1-1.224 6.94c-1.1 3.983-2.691 7.81-3.83 11.781a51.545 51.545 0 0 0-1.281 5.652c.405-.041.811-.071 1.219-.078 1.36-.023 2.869.151 4.001.968a3.946 3.946 0 0 1 1.402 1.832c.341.896.339 1.901.385 2.846l.289 5.835a4.044 4.044 0 0 1 2.529 2.288 14.584 14.584 0 0 1 1.019 3.86c.879 5.464.729 11.042.6 16.554-.113 4.811-.323 243.916.138 303.208h-73.561c.092-58.852.086-292.689.046-295.229-.087-5.342-.341-10.682-.374-16.025a138.48 138.48 0 0 1 .023-3.813c.027-1.25.038-2.517.169-3.762.139-1.315.529-2.562 1.499-3.508a6.105 6.105 0 0 1 2.517-1.429c-.026-.26-.041-.521-.051-.777-.075-2.014-.125-4.029-.187-6.042-.03-.955-.118-1.929-.058-2.883a3.63 3.63 0 0 1 .897-2.311c.848-.914 2.152-1.185 3.326-1.408a18.209 18.209 0 0 0 1.83-.403c.28-.077.551-.184.807-.32a2.45 2.45 0 0 0 .631-.445.705.705 0 0 1 .264-.161 364.189 364.189 0 0 1-.679-11.722c-.227-5.444-.36-10.906-.206-16.353.152-5.337.667-10.726 2.17-15.868a37.086 37.086 0 0 1 6.777-12.951 49.261 49.261 0 0 1 10.263-9.328 79.098 79.098 0 0 1 11.246-6.427v-11.374a4.54 4.54 0 0 1 2.342-3.96v-32.804c0-3.4.339-7.105-.645-10.397a15.5 15.5 0 0 0-2.931-5.408 15.561 15.561 0 0 0-4.809-3.848c-1.878-.968-3.863-1.355-5.908-1.794a84.905 84.905 0 0 1-5.867-1.484A85.925 85.925 0 0 1 121.76 151a85.644 85.644 0 0 1-21.802-27.961 85.393 85.393 0 0 1-2.487-69.26 85.58 85.58 0 0 1 19.74-29.444A85.876 85.876 0 0 1 147.214 5.38Zm-2.611 345.681c-1.531.04-2.753 1.599-2.212 3.086a2.355 2.355 0 0 0 1.584 1.532 1.401 1.401 0 0 0 1.345-.313 1.334 1.334 0 0 0 .367-1.061 1.68 1.68 0 0 0-.73-1.234 3.027 3.027 0 0 0-.93-.415l-.023.012.019-.013.004.001c.046-.026.025-.021-.005-.002.038-.025.073-.053.111-.075.053-.022.104-.049.152-.079a.888.888 0 0 1 .055-.019c.053-.017.108-.028.162-.04.034-.001.074-.006.101-.007a.687.687 0 1 0 0-1.373Zm0-11.356c-1.531.04-2.753 1.598-2.212 3.085.119.364.325.695.601.961.276.267.614.463.983.571a1.412 1.412 0 0 0 1.345-.314 1.322 1.322 0 0 0 .367-1.06 1.675 1.675 0 0 0-.73-1.234 3.053 3.053 0 0 0-.93-.416l-.023.013a.23.23 0 0 1 .019-.014l-.002-.001c.038-.024.074-.052.112-.075a1.09 1.09 0 0 0 .152-.078c.018-.006.036-.014.055-.019.053-.017.108-.027.162-.04.034-.001.074-.007.101-.007a.69.69 0 0 0 .689-.687.683.683 0 0 0-.689-.685Zm-3.191-26.626a5.312 5.312 0 0 1-1.024.509c-1.113.422-2.317.501-3.459.811a6.932 6.932 0 0 0-.623.201l-.05.019-.046.021a3.725 3.725 0 0 0-.364.194c-.049.03-.095.061-.142.092a2.362 2.362 0 0 0-.368.35 1.952 1.952 0 0 0-.055.074c-.032.05-.064.1-.094.151-.154.285-.244.6-.264.922-.039.955-.024 1.912.046 2.866l.09 2.914.09 2.915c-.001.464.032.929.098 1.389a.826.826 0 0 1 .019.053c.07.393.232.766.472 1.085.028.034.057.067.086.099l.052.056c.021.022.045.042.067.063a2.937 2.937 0 0 0 .311.255l.013.009c.291.196.599.365.92.505.187.086.377.167.567.246l.586.229c.467.183.937.362 1.407.537l.492.18a81.758 81.758 0 0 0 2.535.874c.158.051.316.104.473.154.481.154.964.303 1.447.447l.043.013c.496.146.992.289 1.49.426.155.043.312.084.467.126.351.094.702.187 1.053.276l.528.132c.347.085.694.168 1.041.249l.477.111c1.014.23 2.032.44 3.055.629l.336.061a69.5 69.5 0 0 0 1.568.267c2.172.349 4.356.606 6.549.77 2.81.21 5.631.27 8.448.182h.005a81.564 81.564 0 0 0 3.565-.196c.428-.033.856-.07 1.283-.11.281-.027.561-.053.841-.082l.163-.017c.43-.046.86-.094 1.288-.147l.037-.005a71.255 71.255 0 0 0 6.846-1.178l.054-.012a61.902 61.902 0 0 0 2.556-.634l.231-.064c.395-.108.789-.221 1.181-.339l.189-.057c.275-.083.548-.171.821-.258.34-.109.679-.221 1.016-.336.17-.058.341-.115.511-.175.44-.155.879-.315 1.315-.48l.168-.063a58.113 58.113 0 0 0 1.512-.607l.261-.112a49.95 49.95 0 0 0 1.184-.521c.285-.13.57-.258.853-.393l.033-.015c.293-.139.585-.28.874-.426a3.348 3.348 0 0 0 1.106-.76 1.05 1.05 0 0 0 .09-.128l.015-.024c.165-.33.238-.7.211-1.068a17.225 17.225 0 0 0-.024-.717c-.007-.097-.015-.193-.019-.284l-.149-3.033-.145-2.907c-.044-.895-.038-1.811-.161-2.699a2.944 2.944 0 0 0-.842-1.794 3.273 3.273 0 0 0-1.431-.719 9.765 9.765 0 0 0-3.468-.103 51.882 51.882 0 0 0-.478 5.511 6.806 6.806 0 0 0 1.554-1.171c.621-.632 1.594.34.973.971a7.892 7.892 0 0 1-.843.739c-2.484 1.907-5.791 2.162-8.801 2.404a272.36 272.36 0 0 1-11.061.689c-3.689.147-7.384.192-11.075.077a108.868 108.868 0 0 1-11.075-.885 83.646 83.646 0 0 1-10.829-2.156.688.688 0 0 1 .366-1.324c.437.119.875.235 1.315.346l.169.041a430.487 430.487 0 0 1-.266-3.008c-.09-1.077-.174-2.155-.256-3.233Zm63.735-80.208c-1.447-.393-3.112.234-4.528.712a56.773 56.773 0 0 0-17.214 9.409v29.176a4.527 4.527 0 0 1-1.242 3.119c.245 1.342.431 2.693.546 4.046.074.881-1.302.873-1.377 0a34.377 34.377 0 0 0-.294-2.418 59.761 59.761 0 0 0-.28-1.613c-.005-.017-.012-.035-.016-.053a56.647 56.647 0 0 0-.226-1.103 51.069 51.069 0 0 0-1.886-6.612l-.091-.242a41.611 41.611 0 0 0-.325-.853 39.628 39.628 0 0 0-.903-2.091l-.029-.063a26 26 0 0 0-1.572-2.882 19.181 19.181 0 0 0-.82-1.185l-.059-.074c-.47-.604-1.028-1.117-1.538-1.679l-.005-.005a5.747 5.747 0 0 1-.219-.242l-.004-.004-.009-.012a4.195 4.195 0 0 1-.524-.758 73.273 73.273 0 0 1-3.966 4.723.699.699 0 0 1-.973 0 .698.698 0 0 1 0-.971c1.827-2 3.54-4.101 5.131-6.292.158-.278.34-.547.517-.811 1.377-2.203 2.809-4.375 4.207-6.564.428-.67.895-1.394 1.298-2.152.185-.354.352-.719.499-1.09a6.765 6.765 0 0 0 .518-2.277c.002-.121 0-.239-.005-.355l-.009-.15-.012-.112a4.756 4.756 0 0 0-.529-1.684l-.022-.039c-.028-.05-.06-.1-.09-.149a3.66 3.66 0 0 0-.633-.749c-.051-.044-.1-.091-.154-.132l-.004-.003c-.031-.023-.063-.043-.094-.064l-.081-.051a2.89 2.89 0 0 0-.179-.105c-.834-.428-1.8-.313-2.694-.022-.134.044-.268.09-.401.139-.157.06-.313.123-.465.188-.839.357-1.666.746-2.491 1.134a94.808 94.808 0 0 0-3.069 1.511 68.269 68.269 0 0 0-11.595 7.378 42.344 42.344 0 0 0-9.115 9.868c-2.716 4.199-4.375 8.917-5.284 13.814-.956 5.15-1.109 10.406-1.108 15.631.002 5.375.183 10.75.473 16.116.287 5.169.667 10.331 1.139 15.485a84.503 84.503 0 0 0 9.008 1.563c3.596.429 7.216.656 10.837.735 3.657.08 7.316.01 10.969-.154 3.608-.167 7.211-.405 10.807-.713a19.99 19.99 0 0 0 4.885-.877v-.005c.056-2.57.295-5.133.716-7.668a52.973 52.973 0 0 1 1.498-6.466c.594-1.991 1.289-3.949 1.968-5.911 1.271-3.671 2.482-7.402 2.82-11.287-.573.193-1.159.344-1.753.455-1.707.314-3.521.191-4.89-.977a5.436 5.436 0 0 1-1.722-3.815c-.221-3.39 2.26-6.042 4.48-8.281.624-.629 1.596.342.973.971-1.211 1.222-2.445 2.464-3.278 3.984a6.542 6.542 0 0 0-.766 2.18c0 .012-.02.186-.022.214a6.075 6.075 0 0 0-.019.776c.006.299.045.597.117.887a3.441 3.441 0 0 0 1.955 2.563c1.372.578 2.985.218 4.343-.222a13.766 13.766 0 0 0 6.554-4.596 11.961 11.961 0 0 0 2.537-7.536 11.545 11.545 0 0 0-2.706-7.326c-.276.277-.559.548-.853.805-1.691 1.483-3.705 2.766-6 2.962-1.939.166-4.064-.701-5.078-2.412a5.163 5.163 0 0 1-.512-3.381 10.46 10.46 0 0 1 .885-2.969 10.69 10.69 0 0 1 4.008-4.533c.753-.472 1.443.715.695 1.185a8.596 8.596 0 0 0-1.051.768 9.429 9.429 0 0 0-2.874 4.366 6.398 6.398 0 0 0-.326 2.855 2.993 2.993 0 0 0 1.198 1.936 4.354 4.354 0 0 0 2.147.816 5.915 5.915 0 0 0 2.789-.498 13.55 13.55 0 0 0 4.622-3.525 16.631 16.631 0 0 0 4.277-10.221c.071-1.811-.234-3.72-1.299-5.231-.033-.048-.07-.094-.103-.142l-.006-.007c-.07-.082-.138-.166-.209-.247a7.175 7.175 0 0 0-.852-.811l-.086-.068a7.2 7.2 0 0 0-1.457-.855l-.153-.063a7.138 7.138 0 0 0-.913-.283 8.923 8.923 0 0 0-.649-.119 7.36 7.36 0 0 0-1.388-.019c-.357.03-.712.09-1.059.18a8.7 8.7 0 0 0-1.28.418c-.963.419-1.87.957-2.699 1.601l-.015.008a83.372 83.372 0 0 1-3 2.126.697.697 0 0 1-.942-.246.7.7 0 0 1 .247-.939 83.3 83.3 0 0 0 9.823-7.772 75.991 75.991 0 0 0 3.974-3.913c.587-.6 1.111-1.258 1.565-1.964a5.328 5.328 0 0 0 .785-2.055 3.29 3.29 0 0 0-.295-1.914 2.24 2.24 0 0 0-1.421-1.121ZM191.646 10.036a77.32 77.32 0 0 0-51.57 8 76.98 76.98 0 0 0-34.654 38.914 76.706 76.706 0 0 0-1.871 52.009 76.94 76.94 0 0 0 31.768 41.29 77.311 77.311 0 0 0 50.862 11.665 77.216 77.216 0 0 0 46.667-23.301 76.468 76.468 0 0 0 20.392-41.232c.598-3.9.9-7.84.905-11.785a76.776 76.776 0 0 0-17.628-48.984 77.165 77.165 0 0 0-44.871-26.576Z" fill="currentColor"/><path d="M280.65 161.963a.69.69 0 0 1 .667.686.689.689 0 0 1-.667.686.685.685 0 0 1 0-1.372Z" fill="currentColor"/><path fill-rule="evenodd" clip-rule="evenodd" d="M276.885 153.28a20.34 20.34 0 0 1 11.935.595 20.528 20.528 0 0 1 9.619 7.33 20.226 20.226 0 0 1 3.726 11.68 21.036 21.036 0 0 1-.256 3.19 19.847 19.847 0 0 1-1.934 5.947c-.01.023-.019.047-.031.069-.161.317-.332.629-.51.936-.035.059-.074.117-.109.177-.047.078-.097.153-.144.231a19.607 19.607 0 0 1-.815 1.227c-.069.094-.137.19-.207.284a19.994 19.994 0 0 1-4.462 4.378l-.005.004-.003.002-.15.105a20.16 20.16 0 0 1-.524.357l-.012.008a20.159 20.159 0 0 1-4.779 2.303l-.079.025c-.225.073-.451.143-.678.207l-.017.006c-.225.064-.452.123-.68.179l-.156.037c-.182.044-.366.084-.55.122l-.1.023-.049.008-.081.017c-.206.04-.412.077-.619.11l-.139.022c-.201.031-.403.059-.604.085l-.15.018c-2.498.301-5.03.139-7.47-.474a19.969 19.969 0 0 1-3.248-1.135c-.033-.015-.068-.028-.102-.043-.054-.024-.106-.051-.159-.075l-.146-.068a20.032 20.032 0 0 1-4.024-2.517l-.028-.022-.006-.005a19.881 19.881 0 0 1-.752-.636c-.081-.072-.16-.147-.24-.22a18.836 18.836 0 0 1-1.078-1.067 22.992 22.992 0 0 1-.836-.944 20.02 20.02 0 0 1-.636-.811c-.053-.071-.107-.14-.159-.211-.189-.26-.372-.525-.548-.794l-.037-.057a27.082 27.082 0 0 1-.323-.507c-.055-.091-.107-.185-.161-.277l-.088-.151a19.015 19.015 0 0 1-.433-.792l-.036-.065-.004-.009a20.182 20.182 0 0 1 2.876-22.595 20.3 20.3 0 0 1 10.201-6.207Zm2.758.876a19.449 19.449 0 0 0-2.878.571 18.875 18.875 0 0 0-10.416 7.376 18.788 18.788 0 0 0-3.321 12.302c.072.954.222 1.903.447 2.833.232.969.537 1.921.915 2.844.068.167.144.338.221.508a19.135 19.135 0 0 1 1.597-1.313 24.389 24.389 0 0 1 10.113-4.16c-1.71-.469-3.29-1.575-3.445-3.464-.109-1.339.617-2.598 1.321-3.679a27.287 27.287 0 0 1 2.408-3.154 2.999 2.999 0 0 1-.289-.41 1.022 1.022 0 0 1-.051-.884c.108-.234.288-.429.512-.556a6.1 6.1 0 0 0 .762-.596l.076-.081.048-.074c.036-.06.076-.119.113-.178.13-.21.251-.424.368-.64.221-.41.424-.83.636-1.245a13.18 13.18 0 0 1 1.494-2.385 3.86 3.86 0 0 1-.772-1.222 2.85 2.85 0 0 1 .116-2.331c.012-.022.028-.042.04-.064l-.015.002Zm6.379.344a22.405 22.405 0 0 1 2.367 1.901 5.338 5.338 0 0 1 2.426 3.119c.342.712.532 1.488.556 2.277a8.148 8.148 0 0 1-.434 2.608c-.25.819-.554 1.621-.907 2.401a4.933 4.933 0 0 1-.395.711c-.359.863-.75 1.714-1.131 2.576a16.073 16.073 0 0 0-.921 2.748c-.177.736-.326 1.479-.511 2.213a28.19 28.19 0 0 1 2.886.638c3.349.934 6.614 2.519 9.181 4.891a18.9 18.9 0 0 0 1.436-10.561 18.842 18.842 0 0 0-4.882-10.017 18.931 18.931 0 0 0-9.697-5.524l.026.019Zm.871 8.971a2.587 2.587 0 0 0-.993 1.08 6.142 6.142 0 0 0-.574 1.79c-.219 1.182-.221 2.403-.412 3.596a6.521 6.521 0 0 1-1.408 3.267c-1.283 1.502-3.368 2.212-5.319 2.179-.111.312-.224.623-.34.933l.01.014c.055.072.113.143.174.211l.009.009c.413.441.918.788 1.478 1.016.321.133.652.238.99.315l.031.007c.09.021.181.039.272.057l.181.032.125.022.217.031a22.183 22.183 0 0 0 .32.04l.09.01.222.021.121.011c.269.023.537.04.799.055.393.032.788.042 1.182.033.071-.004.144-.01.216-.018l.01-.001c.047-.005.094-.014.14-.022.066-.013.13-.028.193-.045.021-.006.044-.01.064-.017l.04-.013a1.077 1.077 0 0 0 .295-.156l.022-.017.023-.023.019-.018c.02-.081.046-.162.075-.241.009-.035.019-.07.027-.106.024-.101.045-.203.065-.305.006-.03.013-.06.018-.091l.018-.098c.036-.199.068-.4.099-.6.04-.259.081-.518.125-.776l.017-.101.009-.043c.005-.027.008-.055.014-.083.001-.008.005-.015.007-.023.119-.606.308-1.204.44-1.808.163-.819.368-1.629.613-2.428.305-.878.661-1.739 1.067-2.576l.237-.522a1.556 1.556 0 0 1-.398-.475c-.059-.104-.109-.213-.171-.316l-.041-.065-.002-.003-.018-.009a.697.697 0 0 1-.247-.94c.31-.512.434-1.116.352-1.71a2.506 2.506 0 0 0-.214-.719 3.56 3.56 0 0 0-.188-.322c-.033-.049-.037-.071-.101-.039Zm-1.782 14.352c-.005.001-.014.017-.021.047l.008-.009.013-.038Zm-3.794-19.178a15.15 15.15 0 0 0-1.645 2.792c-.342.68-.684 1.498-1.27 2.005a8.194 8.194 0 0 1-.667.551c.042.049.083.099.127.145.037.038.167.13.064.065a.74.74 0 0 1 .313.413c.342.027.682.065 1.02.115.609.09 1.25.345 1.807.391.189.017.379.019.568.005.098-.014.196-.035.292-.062a.858.858 0 0 0 .325-.313c.037-.059.07-.121.101-.183.228-.456.324-1.272.523-1.86.051-.15.116-.295.167-.445.007-.021.012-.037.017-.048a.142.142 0 0 1-.005-.058c-.001.134-.01-.044-.017-.074a4.281 4.281 0 0 1-.194-.969c-.007-.304.033-.609.027-.913 0-.119-.01-.239-.028-.356-.039-.18-.023-.172-.109-.286.077.102-.092-.064-.1-.071-.06-.047-.124-.09-.187-.133-.167-.114-.342-.219-.515-.324a16.724 16.724 0 0 1-.614-.387Z" fill="currentColor"/><path d="M45.16 94.539c.181 0 .356.07.485.198a6.573 6.573 0 0 0 .705.653l.004.003.044.033a6.533 6.533 0 0 0 .966.59c.096.049.195.09.291.136l.013.006.006.002.004.002.07.027c.06.023.12.046.18.067a.705.705 0 0 1 .48.845.691.691 0 0 1-.846.479 7.291 7.291 0 0 1-2.89-1.873.701.701 0 0 1 0-.97.696.696 0 0 1 .487-.198Z" fill="currentColor"/><path d="m47.68 96.162-.004-.001c-.006-.004-.015-.006-.02-.01.006.004.016.007.024.01Zm-1.076-7.058a.52.52 0 0 1 .235.123.52.52 0 0 1 .178.192.507.507 0 0 1 .08.255.52.52 0 0 1-.011.275 1.44 1.44 0 0 0-.032.14 1.476 1.476 0 0 0 0 .176l.008.036a.694.694 0 0 1 0 .365l-.07.165a.692.692 0 0 1-.246.246l-.165.069a.525.525 0 0 1-.275.012.512.512 0 0 1-.255-.081.769.769 0 0 1-.317-.41 2.834 2.834 0 0 1-.055-.359 2.068 2.068 0 0 1 .08-.725.69.69 0 0 1 .175-.303l.14-.108a.69.69 0 0 1 .348-.092l.182.024Zm-.243-3.117a.691.691 0 0 1 .636.423.688.688 0 0 1-.148.748.713.713 0 0 1-.488.2c-.067.001-.133.009-.199.015a1.609 1.609 0 0 0-.78.329.69.69 0 0 1-.292.168l-.183.024a.697.697 0 0 1-.487-.201.7.7 0 0 1-.201-.486.69.69 0 0 1 .2-.485 3.29 3.29 0 0 1 .468-.339c.161-.09.331-.167.505-.23a2.83 2.83 0 0 1 .97-.166Z" fill="currentColor"/><path fill-rule="evenodd" clip-rule="evenodd" d="M41.5 69.286c.039 0 .077.003.115.004.164.004.33.007.493.013l.216.011.203.01c.211.01.422.023.633.037l.21.013c3.486.247 6.92.978 10.203 2.173.15.055.297.117.446.173a36.5 36.5 0 0 1 3.68 1.616 37.688 37.688 0 0 1 10.846 8.266 38.4 38.4 0 0 1 1.933 2.312l.113.146c.234.305.463.614.687.927l.108.143c.081.115.158.234.238.349a36.996 36.996 0 0 1 2.345 3.853l.004.006c.251.476.492.958.722 1.444l.059.12a33.312 33.312 0 0 1 .58 1.3c.096.226.191.453.282.68.05.122.1.243.148.365.055.14.107.283.16.424.04.108.083.217.123.326.134.368.262.738.385 1.11.014.045.032.09.046.136.049.148.095.297.141.446l.035.112c.17.552.328 1.108.47 1.666a38.053 38.053 0 0 1 .193.795 39.65 39.65 0 0 1 .176.792l.064.3.093.486c.022.117.045.233.066.35.023.129.044.259.065.389a36.927 36.927 0 0 1 .248 1.721l.022.174c.023.202.045.404.065.607l.015.151c.02.211.039.423.055.635l.005.068c.049.633.081 1.267.098 1.9l.008.326.004.363c0 .099.003.2.004.299l-.003.198v.166c0 .07-.003.14-.004.21l-.007.333a37.716 37.716 0 0 1-.707 6.423c-.017.088-.037.176-.055.264a33.55 33.55 0 0 1-.315 1.395l-.059.239c-.055.215-.111.429-.17.643l-.079.288c-.056.201-.114.403-.175.603-.04.134-.082.268-.124.402-.037.117-.073.236-.111.353-.046.142-.094.284-.142.426a30.187 30.187 0 0 1-.257.742c-.066.18-.132.36-.2.538l-.069.186a37.69 37.69 0 0 1-1.465 3.328 37.156 37.156 0 0 1-2.51 4.272l-.042.062c-.25.366-.507.729-.77 1.086-.08.11-.16.221-.241.33a41.804 41.804 0 0 1-.894 1.144l-.276.338c-.22.263-.443.523-.67.781a38.429 38.429 0 0 1-.91 1.002c-.034.037-.071.074-.107.111l-.057.064-.104.104c-.276.288-.558.57-.844.848l-.066.066c-.3.29-.606.575-.916.856l-.189.169a34.17 34.17 0 0 1-.933.808l-.154.127c-.309.256-.62.506-.937.751l-.09.071a38.908 38.908 0 0 1-2.236 1.596c-.05.033-.1.064-.148.097-.33.215-.661.424-.997.629-.047.028-.093.058-.14.087-.352.212-.708.419-1.068.62l-.114.066c-.079.044-.159.086-.238.129l-.241.131a57.72 57.72 0 0 1-.551.289l-.144.074a37.455 37.455 0 0 1-9.565 3.343 38.24 38.24 0 0 1-3.824.571l-.213.021c-.193.018-.386.034-.578.049-.05.004-.1.01-.149.013l-.165.01c-.214.015-.428.028-.642.039l-.298.016a48.47 48.47 0 0 1-.853.029l-.323.004a39.036 39.036 0 0 1-1.584-.011c-.114-.003-.228-.006-.342-.011a32.156 32.156 0 0 1-1.218-.065 48.172 48.172 0 0 1-.949-.077l-.023-.003a37.404 37.404 0 0 1-9.71-2.245 41.84 41.84 0 0 1-.696-.275c-.067-.027-.136-.052-.204-.08l-.15-.062a36.952 36.952 0 0 1-1.185-.509c-.17-.077-.337-.16-.506-.239l-.13-.062a37.691 37.691 0 0 1-8.32-5.403l-.154-.131c-.115-.099-.233-.195-.347-.295-.102-.091-.201-.187-.303-.279l-.223-.205a38.385 38.385 0 0 1-1.275-1.225l-.032-.03-.005-.007a3.247 3.247 0 0 1-.057-.059c-.076-.076-.153-.152-.228-.23l-.002-.002-.011-.013a37.75 37.75 0 0 1-6.498-9.053.785.785 0 0 1-.078-.238 37.204 37.204 0 0 1-2.872-7.827 37.705 37.705 0 0 1-1.063-9.154v-.174c.005-.34.012-.681.025-1.021l.004-.084c.013-.306.03-.613.051-.918l.007-.137.01-.136.012-.171c.01-.132.024-.266.035-.398l.022-.25c.054-.565.121-1.13.2-1.692l.01-.073a37.019 37.019 0 0 1 2.277-8.558l.02-.05c.034-.085.067-.172.102-.257.02-.049.044-.096.064-.145.28-.685.582-1.362.905-2.03a37.528 37.528 0 0 1 6.719-9.63l.058-.061c.306-.317.618-.628.935-.934l.107-.103c.11-.106.22-.213.332-.318.516-.48 1.044-.944 1.583-1.393.08-.067.16-.135.24-.2.29-.24.584-.473.88-.702.128-.098.257-.194.385-.29a37.999 37.999 0 0 1 2.037-1.439 37.546 37.546 0 0 1 21.48-6.123ZM9.983 122.137c-.159.139-.313.284-.47.426-.156.143-.315.283-.468.429-.192.182-.38.373-.567.56a35.955 35.955 0 0 0 4.176 6.278 38.39 38.39 0 0 0 1.7 1.904c.047.051.095.102.144.152l.005.006c.168.175.342.345.514.517a36.215 36.215 0 0 0 14.685 8.845l.063.019c.242.076.487.148.731.219l.465.13.307.083a36.793 36.793 0 0 0 12.761 1.039c.114-.011.227-.02.341-.033a40.21 40.21 0 0 0 .947-.112l.43-.058.552-.084.344-.055a36.547 36.547 0 0 0 1.862-.363l.08-.019c.3-.067.599-.138.896-.213l.057-.015a36.385 36.385 0 0 0 8.858-3.546c.093-.052.185-.106.277-.159a28.396 28.396 0 0 0 .88-.521c.056-.034.111-.07.167-.105a36.22 36.22 0 0 0 3.156-2.2l.004-.004c.2-.156.398-.313.595-.473l.141-.117a34.458 34.458 0 0 0 1.131-.969l.041-.036a36.765 36.765 0 0 0 1.362-1.289l.006-.005a36.773 36.773 0 0 0 2.583-2.858c-.267.214-.536.425-.806.633-.926.71-1.875 1.39-2.827 2.064-1.028.728-2.05 1.468-3.134 2.113a15.541 15.541 0 0 1-3.585 1.57c-1.254.368-2.542.609-3.82.872-2.704.557-5.406 1.127-8.112 1.668-2.47.537-4.986.834-7.514.888a33.198 33.198 0 0 1-7.006-.729 35.276 35.276 0 0 1-12.737-5.504 26.611 26.611 0 0 1-5.454-4.817 20.936 20.936 0 0 1-3.564-6.273c-.003-.006-.003-.013-.005-.019-.063.054-.13.107-.192.161Zm6.22-4.309a36.238 36.238 0 0 0-5.081 3.366.77.77 0 0 1 .385.435c.183.511.384 1.014.612 1.506a19.344 19.344 0 0 0 3.904 5.594 29.985 29.985 0 0 0 5.489 4.227 34.059 34.059 0 0 0 12.53 4.629c2.205.341 4.441.442 6.668.3a53.894 53.894 0 0 0 7.48-1.209c2.614-.538 5.234-1.057 7.843-1.619a18.55 18.55 0 0 0 3.575-1.053 19.648 19.648 0 0 0 3.16-1.831c1.9-1.298 3.798-2.631 5.575-4.096a24.37 24.37 0 0 0 4.288-4.421l.043-.081a30.793 30.793 0 0 0-1.634-1.535l-.028-.025a30.552 30.552 0 0 0-1.027-.851c-.135-.107-.274-.208-.41-.313-.227-.173-.452-.349-.683-.517-.074-.054-.152-.104-.227-.158-.294-.21-.59-.42-.89-.621-.206-.137-.416-.269-.624-.402l-.136-.087a31.514 31.514 0 0 1-13.791 9.967 44.957 44.957 0 0 1-6.062 1.681c-2.125.521-4.28.911-6.454 1.168-1.11.105-2.23.071-3.332-.097a20.574 20.574 0 0 1-3.121-.792c-2.107-.676-4.202-1.389-6.302-2.085a27.205 27.205 0 0 1-2.979-1.117c-.824-.395-1.6-.885-2.311-1.458-2.752-2.181-4.47-5.393-6.07-8.443a.753.753 0 0 1-.075-.228c-.105.056-.211.109-.315.166Zm7.908-3.369-.255.084c-.37.121-.74.243-1.106.373l-.145.052a44.219 44.219 0 0 0-4.93 2.091.57.57 0 0 1 .106.138c.192.367.386.734.581 1.098 1.538 2.867 3.309 5.884 6.125 7.664 1.686 1.064 3.672 1.572 5.55 2.194 2.007.665 4.007 1.409 6.052 1.954.98.275 1.99.432 3.008.465 1.035.01 2.07-.076 3.09-.257 2.063-.343 4.122-.79 6.156-1.275a36.51 36.51 0 0 0 5.678-1.788 30.352 30.352 0 0 0 11.814-8.907l-.043-.026c-.1-.059-.199-.119-.299-.177a41.03 41.03 0 0 0-1.03-.567l-.13-.072a42.95 42.95 0 0 0-4.86-2.191c-.164-.062-.33-.119-.495-.18a19.702 19.702 0 0 1-5.617 5.459 19.767 19.767 0 0 1-7.306 2.844c-2.978.5-5.964.207-8.91-.37-2.826-.554-5.771-1.253-8.176-2.91-2.04-1.406-3.629-3.489-4.013-5.952-.282.084-.564.167-.845.256Zm8.779-1.971c-.914.124-1.824.272-2.729.444-.065.013-.13.027-.196.039-.216.042-.432.084-.648.129l-.313.067c-.176.037-.352.074-.527.114-.132.029-.264.061-.395.092l-.444.103-.406.101c-.142.035-.285.07-.426.107-.174.045-.347.095-.52.142.276 2.574 2.313 4.663 4.554 5.854a17.589 17.589 0 0 0 3.768 1.406 44.88 44.88 0 0 0 4.217.893c2.625.49 5.321.462 7.936-.081a18.456 18.456 0 0 0 10.877-7.235 51.263 51.263 0 0 0-7.98-1.966l-.146-.025c-.19-.03-.38-.055-.569-.084.024.117.05.234.073.351.01.053.018.103.023.15v.004c.005.04.008.081.008.121v.018a.823.823 0 0 1-.029.201.8.8 0 0 1-.153.296l-.044.053-.021.027-.029.03a6.06 6.06 0 0 1-.296.325l-.013.012-.009.01-.033.03a6.008 6.008 0 0 1-.321.295l-.125.108a8.38 8.38 0 0 1-.503.38l-.062.044a7.035 7.035 0 0 1-.322.209l-.026.016a10.544 10.544 0 0 1-4.856 1.382c-.986.049-1.974.032-2.958-.053l-.032-.002-.177-.012c-.728-.059-1.463-.114-2.19-.213-.178-.024-.356-.05-.534-.081l-.042-.007a8.377 8.377 0 0 1-.728-.168l-.042-.013a5.639 5.639 0 0 1-.478-.161l-.03-.013a2.245 2.245 0 0 1-.11-.045c-.826-.344-1.57-.897-1.808-1.736l-.019-.078c-.01-.043-.023-.086-.03-.131a9.283 9.283 0 0 1-.08-.603 12.825 12.825 0 0 1-.057-.846Zm12.97-29.982c-.057.043-.115.087-.174.128-.074.054-.144.113-.22.164a9.168 9.168 0 0 1-.73.444 9.26 9.26 0 0 1-.627.322c-.432.201-.877.374-1.332.519-.197.062-.394.124-.589.192a3.29 3.29 0 0 0-.723.338l-.016.011-.05.037-.024.02a1.511 1.511 0 0 0-.157.153l-.074.11-.01.02c-.006.024-.041.114-.043.121a.848.848 0 0 0-.016.172c0 .042.002.084.005.124l.003.035.007.053c.03.18.07.36.104.538l.002.01.002.012c.012.062.024.125.033.188a.7.7 0 0 1 .023.195c.011.11.016.223.02.334.012.17.01.344-.008.514a4.406 4.406 0 0 1-.135.689l-.007.024c-.03.101-.064.2-.1.299l-.036.093a3.89 3.89 0 0 1-.346.666v.002a.741.741 0 0 1-.22.213.64.64 0 0 1-.861-.075 1.561 1.561 0 0 0-1.673-.543 1.835 1.835 0 0 0-1.314 1.362 2.74 2.74 0 0 0-.075 1.052c.06.387.198.76.408 1.091a4.11 4.11 0 0 0 1.606 1.435c.104.055.209.109.316.158a.528.528 0 0 1 .204.17.73.73 0 0 1 .043.77 30.993 30.993 0 0 1-5.688 6.787c.024.12.05.24.073.361.145.774.242 1.555.316 2.337.007.067.017.134.023.201.08.864.128 1.732.187 2.598.058.838.163 1.67.24 2.506.064.683.032 1.381.033 2.069.001.213.003.427.008.64a18.626 18.626 0 0 0 .065 1.237c.008.056.014.114.023.169l.03.14c.02.063.044.136.036.135.03.051.063.1.1.147.023.029.05.056.076.083l.1.099c.112.103.235.194.366.271.18.104.368.192.563.262a8.044 8.044 0 0 0 1.209.286c.34.047.682.079 1.014.11a70.355 70.355 0 0 0 2.008.162l.292.015.197.009a24.422 24.422 0 0 0 1.222.011c.092-.002.184-.004.276-.008l.214-.009c.09-.005.18-.01.271-.017l.073-.006a9.04 9.04 0 0 0 3.888-1.143l.063-.039c.087-.054.173-.109.257-.166l.097-.067a6.87 6.87 0 0 0 .219-.162l.104-.082c.07-.056.14-.115.207-.175.032-.028.065-.056.096-.085.074-.068.146-.139.217-.211.022-.023.047-.044.069-.068l.014-.017c-.066-.307-.13-.616-.193-.924-.01-.055-.023-.111-.034-.166l-.003-.013a13.214 13.214 0 0 1-.88-5.717l-.002-.071c0-.1.003-.2.006-.3l.006-.143a5.417 5.417 0 0 1 .082-.685l.078-.363c.122-.447.315-.872.572-1.258l.028-.044c.068-.101.14-.2.217-.296.022-.028.044-.057.067-.084l.009-.012c.033-.04.07-.076.105-.115.057-.063.11-.129.17-.189l.107-.107c.362-.338.69-.711.98-1.112.036-.055.074-.109.108-.165.035-.056.067-.114.1-.171.05-.089.1-.179.146-.269l.06-.124a6.93 6.93 0 0 0 .148-.33l.029-.076c.05-.129.098-.26.14-.392l.01-.027c.518-1.639.403-3.444.168-5.172l-.005-.038-.051-.362-.015-.107a.826.826 0 0 1 .041-.44.738.738 0 0 1 .432-.4l.007-.003c-.126.05-.03 0 .025-.032.044-.032.111-.078.126-.088l.028-.024c.12-.097.235-.202.35-.305.041-.04.17-.169.264-.253-.116-.1-.29-.287-.379-.382-.266-.26-.522-.532-.762-.815a5.408 5.408 0 0 1-.29-.354l-.02-.024c-.016-.021-.03-.045-.045-.067-.025-.036-.05-.071-.073-.108a4.807 4.807 0 0 1-.32-.653 20.253 20.253 0 0 1-.304-.74l-.018-.05a24.41 24.41 0 0 1-.235-.63l-.022-.061-.01-.03-.01-.026c-.728-2.077-1.306-4.216-2.449-6.098l-.12-.192-.017-.025c-.04.031-.084.061-.126.092Zm-2.105-5.369-.344.01-.343.017c-.507.025-1.014.06-1.518.113l-.037.005a22.109 22.109 0 0 0-.968.125l-.01.002a15.06 15.06 0 0 0-5.744 2.004.62.62 0 0 1-.4.282l-.04.01a10.076 10.076 0 0 0-2.184 2.054.694.694 0 0 1-.974 0 .642.642 0 0 1-.164-.276c-.22.25-.418.52-.59.807a8.152 8.152 0 0 0-1.032 4.23c.031 1.679.239 3.35.62 4.987l.002.015c.027.126.059.25.087.376.067.3.135.6.21.897.048.19.102.38.153.569.06.219.118.439.181.657.066.227.137.454.208.68a27.652 27.652 0 0 0 .44 1.316l.12.337c.115.31.234.62.358.928l.076.186c.13.319.265.636.405.95.034.078.07.155.105.232.198.437.407.87.623 1.299a29.675 29.675 0 0 0 4.506-5.378 5.5 5.5 0 0 1-1.689-1.6c-.98-1.455-.978-3.573.296-4.863a3.186 3.186 0 0 1 3.699-.527c.064-.223.1-.454.103-.685a7.838 7.838 0 0 0-.16-1.115 3.763 3.763 0 0 1-.027-.222l-.015-.119c0-.017.001-.034.003-.05a2.878 2.878 0 0 1-.002-.219c0-.045.006-.091.01-.137l.005-.065c.003-.02.003-.039.005-.058l.014-.062a.7.7 0 0 1 .02-.128c.01-.039.025-.078.038-.116l.008-.023c.013-.037.025-.075.04-.112l.007-.015c.017-.042.038-.084.058-.125l.02-.043.011-.019c.008-.014.014-.028.022-.04.014-.026.033-.048.049-.072a1.6 1.6 0 0 1 .075-.108c.03-.04.06-.082.093-.12l.003-.005c.008-.01.018-.017.026-.026a2.22 2.22 0 0 1 .172-.178l.003-.002c.039-.034.08-.066.12-.098.065-.052.131-.101.2-.147l.046-.032.016-.008c.038-.024.074-.051.112-.073.312-.172.642-.314.982-.422l.144-.049a11.88 11.88 0 0 0 2.238-.947 9.2 9.2 0 0 0 2.456-2.129l.014-.017.05-.064.056-.071.006-.008a1.61 1.61 0 0 0 .432-1.014 1.347 1.347 0 0 0-.533-.846 2.755 2.755 0 0 0-.784-.409 5.672 5.672 0 0 0-1.697-.25c-.167-.001-.332 0-.491.004Z" fill="currentColor"/><path d="m303.655 43.834-.006.002-.006-.014-.006-.028c.004.002.01.014.018.04Zm.191-.152-.018.023a.592.592 0 0 1 .038-.055l-.02.032Zm.155-.404a2.033 2.033 0 0 0 0-.006v.006Z" fill="currentColor"/></svg>