<svg xmlns="http://www.w3.org/2000/svg" fill="none" viewBox="0 0 64 64">
    <path fill="currentColor" fill-rule="evenodd" d="M36.726 7.912c2.31-.764 1.871-1.405 4.173-.38s4.233 10.04 4.71 11.452c.477 1.41.258.745.342.988s.107.342.16.477c.309.77 6.64 1.362 8.326 3.363 1.97 2.341-6.117 2.197-7.926 3.318-.103.8 0 1.5-.4 2.602 1.22.79 2.249.839 2.722 2.72s-.685 4.461-1.651 5.65c-.967 1.188-1.703 1.057-2.182 1.22-.566.194-1.381.354-.49.97 1.173.812 6.127 2.496 6.565 3.36.438.866-2.82 4.728-4.113 6.25s.066 1.596 2.451 2.52c2.308.895 8.205 5.4 8.587 11.577H6c.382-6.177 6.28-10.683 8.587-11.577 2.385-.924 3.744-.997 2.451-2.52-1.293-1.522-4.55-5.384-4.113-6.25.438-.864 5.392-2.548 6.565-3.36.891-.616.076-.776-.49-.97-.479-.163-1.215-.032-2.182-1.22-.966-1.189-2.124-3.768-1.651-5.65.473-1.881 1.502-1.93 2.722-2.72-.4-1.101-.297-1.802-.4-2.602-1.809-1.12-9.897-.976-7.926-3.318 1.686-2.001 8.017-2.593 8.326-3.363.053-.135.076-.234.16-.477s-.136.423.342-.988c.477-1.412 2.408-10.427 4.71-11.452s1.862-.384 4.173.38c1.292.426 3.12.677 4.726.747l.611-.035c1.444-.1 2.985-.34 4.115-.712m10.876 25.127c-.102-2.023-1.9-2.087-3.44-.994-.84.596-.706 1.082-.85 2.189-.143 1.107-.964 2.896-1.685 3.498-1.655 1.382-4.585 1.676-6.685.06-1.335-1.027-1.526-2.673-1.712-3.669-.185-.995-.181-.904-.644-1.182a2 2 0 0 0-.45-.218L32 32.69c-.18.03-.36.115-.586.25-.463.279-.459.188-.645 1.184-.185.995-.376 2.64-1.711 3.668-2.1 1.616-5.03 1.322-6.685-.06-.72-.602-1.542-2.39-1.686-3.498-.143-1.107-.008-1.593-.848-2.189-1.542-1.093-3.34-1.029-3.44.993-.06 1.191.64 3.666 1.58 4.544s2.43.392 2.472.47c.042.086 1.189 5.386 2.613 7.636 1.426 2.25 3.65 4.074 6.6 4.622.771.144 1.553.22 2.336.226l.587-.017q.88-.046 1.75-.209c2.949-.548 5.173-2.371 6.598-4.622s2.572-7.55 2.614-7.636c.042-.078 1.531.408 2.471-.47s1.641-3.353 1.582-4.544Zm-4.594-5.409c-.866 0-7.284.672-10.426.83l-.582.024c-2.844-.09-10.085-.853-11.008-.854-.12.659-.129 1.478.114 2.201.73.54 2.926-.024 3.867 0 .265.007-.424-.008.383.01.808.018 3.748.67 4.331 1.291.523.556 1.022.057 2.313.014l.233.014c1.12.088 1.59.493 2.08-.028.583-.62 3.523-1.273 4.33-1.29.807-.019.119-.004.384-.01.94-.025 3.137.54 3.867 0 .243-.724.234-1.543.114-2.202m1.18-8.618c-.574-.334-2.65.522-3.29.655-1.426.298-5.935.592-8.12.66L32 20.34c-1.612.003-7.268-.334-8.898-.674-.64-.133-2.716-.99-3.29-.655-.578.337-.822 1.119-.482 2.08s6.967 1.686 12.047 1.646l.623-.005.623.005c5.08.04 11.706-.684 12.047-1.646.34-.961.096-1.743-.482-2.08Z" clip-rule="evenodd"/>
</svg>
