<svg width="440" height="200" fill="none" xmlns="http://www.w3.org/2000/svg"><g clip-path="url(#Illustrations / cityscape-dark__a)" fill="#000"><path d="M7.606 42.445c3.475-2.017 7.8-1.739 11.588-.905a31.362 31.362 0 0 1 9.663 3.92 35.106 35.106 0 0 1 13.618 15.448 31.518 31.518 0 0 1 2.631 9.942c.038.43.066.862.085 1.294.031.685.929 1.17 1.443.596a9.396 9.396 0 0 1 6.271-3.085 9.093 9.093 0 0 1 6.42 2.082 9.319 9.319 0 0 1 2.425 3.07.85.85 0 0 0 1.328.17 16.406 16.406 0 0 1 7.322-4.708c1.035-.32.593-1.95-.45-1.626a18.145 18.145 0 0 0-7.294 4.337 11.204 11.204 0 0 0-5.314-4.323c-2.631-1-5.551-.927-8.128.203-.887.378-1.718.871-2.474 1.468a32.526 32.526 0 0 0-2.212-8.882 36.735 36.735 0 0 0-13.85-16.83 33.571 33.571 0 0 0-9.968-4.447c-3.981-1.028-8.547-1.527-12.444.083-.52.211-1.026.457-1.513.737a.844.844 0 0 0 .853 1.456Zm140.706 30.864a21.243 21.243 0 0 1 7.538-4.192 21.29 21.29 0 0 1 8.589-.854 20.575 20.575 0 0 1 7.828 2.574 20.514 20.514 0 0 1 6.182 5.438 20.759 20.759 0 0 1 3.86 8.39.86.86 0 0 0 .707.599.855.855 0 0 0 .838-.398c2.894-5.26 9.716-7.52 15.367-5.914a11.428 11.428 0 0 1 4.33 2.294.856.856 0 0 0 1.327-.17c1.52-3.163 3.776-6.062 6.827-7.877a11.77 11.77 0 0 1 9.595-1.215 9.198 9.198 0 0 1 4.43 3.02.852.852 0 0 0 1.413-.373 46.119 46.119 0 0 1 16.214-25.047 44.321 44.321 0 0 1 7.114-4.564c.966-.5.112-1.956-.853-1.456a46.788 46.788 0 0 0-12.428 9.372 47.913 47.913 0 0 0-8.743 12.873 46.824 46.824 0 0 0-2.547 6.911 12.07 12.07 0 0 0-8.762-2.934c-3.886.219-7.407 2.195-10.033 4.998a21.362 21.362 0 0 0-3.246 4.576c-5.153-3.693-12.69-3.352-17.737.433a13.862 13.862 0 0 0-2.655 2.598 23.001 23.001 0 0 0-9.399-12.433 22.242 22.242 0 0 0-17.673-2.751 22.538 22.538 0 0 0-9.279 4.909c-.816.721.384 1.91 1.196 1.193Zm119.756-34.531c4.43-12.186 16.271-20.927 28.993-22.73a32.369 32.369 0 0 1 18.834 2.965 36.94 36.94 0 0 1 14.486 12.982c4.052 6.23 6.241 13.61 5.772 21.052-.049.772.936 1.056 1.443.597 5.155-4.667 13.759-3.99 18.865.409a12.192 12.192 0 0 1 3.374 4.589.853.853 0 0 0 .708.593.861.861 0 0 0 .837-.392c2.145-3.707 5.214-6.965 9.145-8.79a13.588 13.588 0 0 1 11.503-.067 10.656 10.656 0 0 1 4.716 4.275.848.848 0 0 0 .837.397.851.851 0 0 0 .708-.599 31.314 31.314 0 0 1 13.656-18.879 29.899 29.899 0 0 1 6.103-2.953c1.02-.356.581-1.986-.45-1.626a33.075 33.075 0 0 0-18.448 16.25 32.046 32.046 0 0 0-2.015 5.019c-2.319-2.837-5.888-4.456-9.552-4.769-4.674-.4-9.154 1.575-12.608 4.62a24.367 24.367 0 0 0-4.243 4.96c-3.528-6.303-11.71-9.268-18.648-7.347a14.098 14.098 0 0 0-4.183 1.942 36.337 36.337 0 0 0-4.77-18 39.08 39.08 0 0 0-14.284-14.593 34.069 34.069 0 0 0-19.694-4.546 38.904 38.904 0 0 0-18.844 6.687c-5.541 3.785-10.176 8.99-12.914 15.135a36.675 36.675 0 0 0-.958 2.37c-.371 1.023 1.262 1.463 1.631.45Zm145.969.149a.853.853 0 0 0 1.039-.588c.649-4.767 1.909-9.515 4.258-13.743a24.076 24.076 0 0 1 9.014-9.347 18.489 18.489 0 0 1 6.689-2.3.874.874 0 0 0 .846-.844.85.85 0 0 0-.846-.843 21.874 21.874 0 0 0-12.184 5.993c-3.56 3.375-5.996 7.748-7.537 12.368a45.552 45.552 0 0 0-1.87 8.267.869.869 0 0 0 .591 1.037Z"/><path d="M440.888 77.514a1554909.885 1554909.885 0 0 1-62.288 33.882.741.741 0 0 0-.416.698c0 .011-.003.02-.003.031v49.667h-26.616v-16.174a.86.86 0 0 0-.845-.844h-19.913v-24.178a.854.854 0 0 0-.845-.843h-19.441V72.124a.853.853 0 0 0-.845-.843c-9.066 0-18.144-.615-26.697 3.005A38.322 38.322 0 0 0 268.171 85.5a38.201 38.201 0 0 0-7.775 16.847c-.815 4.495-.653 9.088-.632 13.641h-15.492c-1.159 0-2.698-.266-3.835 0-1.244.292-1.94 2.132-2.591 3.147l-5.8 9.046-14.52 22.648-2.432 3.792c-.266.416-1.035 1.24-1.252 1.82-.174.008-.334.019-.363.019h-27.977v-20.334a.86.86 0 0 0-.846-.843H163.8V116.73c0-1.409.271-3.121 0-4.511-.207-1.058-1.236-1.99-1.878-2.833l-4.877-6.402c-.695-.911-1.694-2.98-2.829-3.437-1.042-.42-2.968-.03-4.054-.03h-13.725V16.123a.865.865 0 0 0-.621-.813 2702447.131 2702447.131 0 0 0-45.29-13.177.855.855 0 0 0-1.07.813v154.805c0 .38-.103 1.013-.09 1.532H68.501v-13.665a.853.853 0 0 0-.845-.843H44.613v-12.234c0-4.929.376-9.883-1.725-14.501a19.31 19.31 0 0 0-7.08-8.09 19.378 19.378 0 0 0-10.32-3.06c-3.996-.054-7.997 0-11.993 0H-.265a.86.86 0 0 0-.844.843v90.709a.791.791 0 0 0 .035.223.783.783 0 0 0 .81.76.81.81 0 0 0 .47-.14H41.04a.858.858 0 0 0 .815-1.067c-.636-4.237 3.68-7.48 7.316-4.583a.861.861 0 0 0 1.188-.004.856.856 0 0 0 .225-.368c1.279-4.64 4.599-10.626 10.41-8.89a.85.85 0 0 0 1.04-.589c1.184-7.175 9.641-10.227 15.022-5.178a.854.854 0 0 0 .705.232.851.851 0 0 0 .623-.403c2.396-3.688 6.662-9.466 11.808-7.01a8.066 8.066 0 0 1 2.939 2.628c.395.525.708 1.09 1.331 1.386 1.315.624 2.441-.34 3.27-1.262 1.567-1.743 2.881-3.278 5.066-4.284a12.038 12.038 0 0 1 6.912-.971c4.837.785 8.599 4.649 9.698 9.332a.85.85 0 0 0 .707.599.852.852 0 0 0 .838-.398c1.821-3.222 5.877-4.961 9.422-3.567 3.536 1.391 5.337 5.429 4.447 9.021a.847.847 0 0 0 .399.937.854.854 0 0 0 1.014-.116c1.847-1.736 4.371-2.984 6.966-2.486 2.754.528 4.935 3.092 4.405 5.96-.134.725.84 1.556 1.413.82 3.035-3.898 8.949-.899 7.369 3.855-.309.932 1.05 1.438 1.545.649a4.383 4.383 0 0 1 2.732-1.999 4.386 4.386 0 0 1 3.344.546c1.711 1.13 3.311 3.919 2.421 5.941a.861.861 0 0 0 .007.84.858.858 0 0 0 .723.429h59.048a.86.86 0 0 0 .845-.843c.125-3.26 4.423-7.446 7.627-5.089a.86.86 0 0 0 .744.049.859.859 0 0 0 .498-.553c1.09-3.423 5.451-4.694 8.307-2.626a.856.856 0 0 0 1.156-.303c2.185-3.717 7.64-4.533 10.8-1.572.413.387 1.317.293 1.412-.372 1.151-8.056 10.614-11.702 16.752-6.141a.85.85 0 0 0 .704.231.864.864 0 0 0 .623-.402c2.914-4.195 6.299-8.945 11.732-9.792a12.573 12.573 0 0 1 7.079 1.004 12.525 12.525 0 0 1 5.38 4.699.857.857 0 0 0 1.46 0c3.345-4.786 8.569-8.931 14.673-8.984 5.501-.047 10.895 3.75 11.732 9.316.103.683.987.735 1.413.371 6.895-5.89 17.481-.051 16.044 8.93-.103.644.573 1.422 1.242.953 3.265-2.293 7.001-4.805 11.159-4.819 3.502-.011 7.089 1.969 7.875 5.551a.856.856 0 0 0 .601.586.851.851 0 0 0 .812-.214c3.173-3.557 9.377-3.154 11.957.908a.867.867 0 0 0 .623.406.856.856 0 0 0 .705-.236c3.082-3.69 9.465-2.956 11.598 1.362a.843.843 0 0 0 .622.406.859.859 0 0 0 .705-.236c3.173-3.054 9.118-1.746 10.619 2.43a.855.855 0 0 0 .876.612.854.854 0 0 0 .366-.108c2.847-1.885 9.088-5.352 11.069-.386a.862.862 0 0 0 1.412.372c2.359-1.844 7.998-.052 7.25 3.423a.85.85 0 0 0 .443.975c.116.059.243.09.372.092h15.349a.809.809 0 0 0 .47.14.79.79 0 0 0 .81-.759.812.812 0 0 0 .035-.224v-120.2a.853.853 0 0 0-1.272-.728Zm-130.38 88.959h-.128v-6.222h6.237v6.222h-6.109Zm6.109-29.808h-6.237v-6.222h6.237v6.222Zm0 14.904h-6.237v-6.222h6.237v6.222Zm-21.653-21.126h6.238v6.222h-6.238v-6.222Zm0 14.904h6.238v6.222h-6.238v-6.222Zm0 15.032v-.128h6.238v6.222h-6.238v-6.094Zm-9.177 6.094h-6.238v-6.222h6.238v6.222Zm0-14.904h-6.238v-6.222h6.238v6.222Zm-6.238-21.126h6.238v6.222h-6.238v-6.222Zm-9.178 36.03h-6.237v-6.222h6.238l-.001 6.222Zm0-29.808h-6.237v-6.222h6.238l-.001 6.222Zm0 14.904h-6.237v-6.222h6.238l-.001 6.222Zm-15.415 0h-6.237v-6.222h6.238l-.001 6.222Zm0-14.904h-6.237v-6.222h6.238l-.001 6.222Zm-6.237 23.714v-.128h6.237v6.222h-6.237v-6.094Zm-125.071-20.672h-21.7l-.186-.003v-1.353h23.363l.186.003v1.353h-1.663Zm0-9.43h-21.7l-.186-.002v-1.353h23.363l.186.003v1.353l-1.663-.001Zm0-9.429h-21.7l-.186-.002v-1.353h23.363l.186.003v1.352h-1.663Zm0-9.429h-21.7l-.186-.003v-1.352h23.363l.186.003v1.352h-1.663Zm0-9.429h-21.7l-.186-.003v-1.352h23.363l.186.002v1.353h-1.663Zm0-9.429h-21.7l-.186-.003v-1.352h23.363l.186.002v1.353h-1.663Zm0-9.43h-21.7c-.062 0-.124 0-.186-.002v-1.353h23.363l.186.003v1.353h-1.663Zm0-9.428h-21.7l-.186-.003v-1.353h23.363l.186.003v1.353h-1.663Zm0-9.43h-21.7a8.24 8.24 0 0 1-.186-.002v-1.353h23.363l.186.003v1.352h-1.663Zm0-9.429h-21.7a8.24 8.24 0 0 1-.186-.002v-1.353h23.363l.186.003v1.352h-1.663Zm0-9.429h-21.7a8.24 8.24 0 0 1-.186-.003V44.06h23.363l.186.003v1.352h-1.663Zm0-9.429h-21.7l-.186-.003v-1.352h23.363c.062 0 .124 0 .186.002v1.353h-1.663Zm1.663-9.43h-23.363c-.062 0-.124 0-.186-.002v-1.352h23.363c.062 0 .124 0 .186.002v1.353ZM101.762 147.78h23.363l.186.003v1.353h-23.363l-.186-.003v-1.353Zm112.582 8.68c-.01-.019-.097-.026-.212-.026.076-.072.151-.091.212.026Z"/></g><defs><clipPath id="Illustrations / cityscape-dark__a"><path fill="#fff" d="M0 0h440v200H0z"/></clipPath></defs></svg>